<?xml version="1.0" encoding="UTF-8" standalone="no"?>
<svg
   xmlns:dc="http://purl.org/dc/elements/1.1/"
   xmlns:cc="http://creativecommons.org/ns#"
   xmlns:rdf="http://www.w3.org/1999/02/22-rdf-syntax-ns#"
   xmlns:svg="http://www.w3.org/2000/svg"
   xmlns="http://www.w3.org/2000/svg"
   xmlns:sodipodi="http://sodipodi.sourceforge.net/DTD/sodipodi-0.dtd"
   xmlns:inkscape="http://www.inkscape.org/namespaces/inkscape"
   viewBox="0 0 1719.29 306.42"
   version="1.1"
   id="svg5294"
   sodipodi:docname="logo-white.svg"
   inkscape:version="0.92.4 (5da689c313, 2019-01-14)">
  <metadata
     id="metadata5298">
    <rdf:RDF>
      <cc:Work
         rdf:about="">
        <dc:format>image/svg+xml</dc:format>
        <dc:type
           rdf:resource="http://purl.org/dc/dcmitype/StillImage" />
      </cc:Work>
    </rdf:RDF>
  </metadata>
  <sodipodi:namedview
     pagecolor="#ffffff"
     bordercolor="#666666"
     borderopacity="1"
     objecttolerance="10"
     gridtolerance="10"
     guidetolerance="10"
     inkscape:pageopacity="0"
     inkscape:pageshadow="2"
     inkscape:window-width="1920"
     inkscape:window-height="1023"
     id="namedview5296"
     showgrid="false"
     inkscape:zoom="0.40074681"
     inkscape:cx="763.31405"
     inkscape:cy="233.6485"
     inkscape:window-x="0"
     inkscape:window-y="0"
     inkscape:window-maximized="1"
     inkscape:current-layer="Layer_2" />
  <defs
     id="defs5266">
    <style
       id="style5264">.cls-1{fill:#212120;}.cls-2{fill:#002bff;}</style>
  </defs>
  <title
     id="title5268">Asset 2</title>
  <g
     id="Layer_2"
     data-name="Layer 2">
    <g
       id="Layer_1-2"
       data-name="Layer 1">
      <path
         class="cls-1"
         d="M1091.63,78.61a13.06,13.06,0,0,1-9.84-4.14,13.75,13.75,0,0,1,0-19.33,13.06,13.06,0,0,1,9.84-4.14h131.16a13.09,13.09,0,0,1,9.84,4.14,13.75,13.75,0,0,1,0,19.33,13.09,13.09,0,0,1-9.84,4.14h-10c-1.84,0-2.76,1-2.76,3.11V212.19a18.3,18.3,0,1,1-36.59,0V81.72q0-3.1-3.11-3.11Z"
         id="path5270"
         style="fill:#ffffff;fill-opacity:1" />
      <path
         class="cls-1"
         d="M1263.82,78.61a13.66,13.66,0,0,1-9.66-23.47,13.24,13.24,0,0,1,9.66-4.14h27.61q50.74,0,50.74,45.56V212.19a17.91,17.91,0,0,1-5.18,12.95,17.06,17.06,0,0,1-12.77,5.35,18.18,18.18,0,0,1-13.11-5.35,17.33,17.33,0,0,1-5.52-12.95V102.09q0-13.12-5.53-18.3t-19.33-5.18Z"
         id="path5272"
         style="fill:#ffffff;fill-opacity:1" />
      <path
         class="cls-1"
         d="M1382.88,78.61a13.66,13.66,0,0,1-9.66-23.47,13.22,13.22,0,0,1,9.66-4.14h108q50.73,0,50.74,45.56,0,54.88-49.71,119.43-11.39,14.5-30,14.5a7.87,7.87,0,0,1-7.76-5,8.09,8.09,0,0,1,1.2-9.14q51.78-64.54,51.78-116.33,0-11.39-5.7-16.39t-19.5-5Zm-6.9,54.54a17.26,17.26,0,1,1,34.51,0v156a17.26,17.26,0,1,1-34.51,0Z"
         id="path5274"
         style="fill:#ffffff;fill-opacity:1" />
      <path
         class="cls-1"
         d="M1581.22,78.61a13.66,13.66,0,0,1-9.66-23.47,13.22,13.22,0,0,1,9.66-4.14h87.33q50.73,0,50.74,45.56v117a16.92,16.92,0,0,1-33.83,0V102.09q0-13.12-5.52-18.3t-19.33-5.18Zm-13.81,54.54a17.26,17.26,0,1,1,34.52,0v80.08a17.26,17.26,0,1,1-34.52,0V133.15Z"
         id="path5276"
         style="fill:#ffffff;fill-opacity:1" />
      <path
         class="cls-2"
         d="M1026.79,151.06c.54,0,.81-.11.81-.32q0-.63-.81-.63-24-7.25-34.12-19.39T982.51,97.13V65.59q0-19.55-5.68-24.59t-27.22-5.36a27.09,27.09,0,0,1-16.45-5.21q-7.11-5.2-7.11-12.45T933,5.36A25.72,25.72,0,0,1,949.21,0h27.21q34.94,0,50.17,12T1041.82,52V95.55q0,18,6.91,26.18t22.34,9.46a29.93,29.93,0,0,1,16.45,5.68q6.7,5,6.7,12.29V152q0,7.26-6.7,12.3a29.85,29.85,0,0,1-16.45,5.68q-15.45,1.26-22.34,9.46t-6.91,26.17v43.52q0,28.06-15.23,40.05t-50.17,12H949.21A25.72,25.72,0,0,1,933,295.81q-6.91-5.37-6.91-12.62t7.11-12.46a27.14,27.14,0,0,1,16.45-5.2q21.52-.31,27.22-5.36t5.68-24.6V204q0-21.45,10.16-33.59T1026.79,151.06Z"
         id="path5278" />
      <path
         class="cls-1"
         d="M13.81,78.61A13.06,13.06,0,0,1,4,74.47,13.75,13.75,0,0,1,4,55.14,13.06,13.06,0,0,1,13.81,51H41.42q50.74,0,50.74,45.56v46.6A17.91,17.91,0,0,1,87,156.1a17,17,0,0,1-12.77,5.35,18.16,18.16,0,0,1-13.12-5.35,17.33,17.33,0,0,1-5.52-12.94V102.09q0-13.12-5.52-18.3T30.72,78.61Z"
         id="path5280"
         style="fill:#ffffff;fill-opacity:1" />
      <path
         class="cls-1"
         d="M123.71,78.61a13.08,13.08,0,0,1-9.84-4.14,13.75,13.75,0,0,1,0-19.33A13.08,13.08,0,0,1,123.71,51H191q50.73,0,50.74,45.56V212.19a18,18,0,0,1-5.18,12.95,17.06,17.06,0,0,1-12.77,5.35,18.19,18.19,0,0,1-13.12-5.35,17.37,17.37,0,0,1-5.52-12.95V102.09q0-13.12-5.52-18.3t-19.33-5.18Z"
         id="path5282"
         style="fill:#ffffff;fill-opacity:1" />
      <path
         class="cls-1"
         d="M271.05,213.23q9-60.06,8.29-82.32t-13.12-64A10.93,10.93,0,0,1,268,56a12.29,12.29,0,0,1,10.35-5,22.85,22.85,0,0,1,13.63,4.32,20.89,20.89,0,0,1,8.12,11.56,206.79,206.79,0,0,1,5.52,35.21c0,.46.11.69.34.69.46,0,.7-.12.7-.35q14.14-28.65,30.2-41.76a55.5,55.5,0,0,1,36.07-13.12q32.79,0,50.91,23.47t18.12,71.45v68.34a20.05,20.05,0,0,1-19.67,19.68H362.52a13.09,13.09,0,0,1-9.84-4.14,13.75,13.75,0,0,1,0-19.33,13.1,13.1,0,0,1,9.84-4.15H405q3.11,0,3.1-3.1V145.92q0-34.86-10.87-51.94T368.73,76.89q-15.18,0-25.19,10.53T324,128q-9.5,30-18.46,85.26a21.18,21.18,0,0,1-7.08,12.25,19,19,0,0,1-12.94,5A14.28,14.28,0,0,1,274,225.31,13.73,13.73,0,0,1,271.05,213.23Z"
         id="path5284"
         style="fill:#ffffff;fill-opacity:1" />
      <path
         class="cls-1"
         d="M461.22,78.61a13.66,13.66,0,0,1-9.66-23.47A13.22,13.22,0,0,1,461.22,51h27.61q50.74,0,50.74,45.56V212.19a17.91,17.91,0,0,1-5.18,12.95,17.06,17.06,0,0,1-12.77,5.35,18.18,18.18,0,0,1-13.11-5.35A17.34,17.34,0,0,1,503,212.19V102.09q0-13.12-5.52-18.3t-19.33-5.18Z"
         id="path5286"
         style="fill:#ffffff;fill-opacity:1" />
      <path
         class="cls-1"
         d="M585.48,211.16,563,69.64a14.91,14.91,0,0,1,3.45-13.12A15.79,15.79,0,0,1,578.92,51a20.76,20.76,0,0,1,14.15,5.52A21.26,21.26,0,0,1,600.32,70l10.35,77.31c.46,1.85,1.5,2.42,3.11,1.73q29-13.8,32.1-81.81a15.69,15.69,0,0,1,4.66-11.56A15.48,15.48,0,0,1,661.93,51a14.93,14.93,0,0,1,11.22,4.66,16,16,0,0,1,4.49,11.56q-2.77,47.3-18.82,75.25t-41.59,34.86c-2.07.47-2.88,1.61-2.42,3.45l2.42,18.3a2.81,2.81,0,0,0,3.11,2.76q41.07-.69,71.28-37.11T726,67.57a17,17,0,0,1,5.35-11.74A16.54,16.54,0,0,1,743.22,51a16.51,16.51,0,0,1,16.57,16.57q-4.15,78-44.53,120.29T607.57,230.49A21.75,21.75,0,0,1,592.9,225,21.15,21.15,0,0,1,585.48,211.16Z"
         id="path5288"
         style="fill:#ffffff;fill-opacity:1" />
      <path
         class="cls-1"
         d="M796,78.61a13.67,13.67,0,0,1-9.67-23.47A13.26,13.26,0,0,1,796,51h87.32q50.74,0,50.74,45.56v117a16.91,16.91,0,0,1-33.82,0V102.09q0-13.12-5.53-18.3t-19.32-5.18Zm-13.81,54.54a17.26,17.26,0,1,1,34.52,0v80.08a17.26,17.26,0,1,1-34.52,0V133.15Z"
         id="path5290"
         style="fill:#ffffff;fill-opacity:1" />
    </g>
  </g>
</svg>
