<?xml version="1.0" encoding="UTF-8"?>
<svg width="21px" height="21px" viewBox="0 0 21 21" version="1.1" xmlns="http://www.w3.org/2000/svg" xmlns:xlink="http://www.w3.org/1999/xlink">
    <title>Fill 3@3x</title>
    <g id="Symbols" stroke="none" stroke-width="1" fill="none" fill-rule="evenodd">
        <g id="Top_menu" transform="translate(-114.000000, -40.000000)" fill="#F9F9F9">
            <path d="M134.125219,40 L114.875438,40 C114.391781,40 114,40.3917812 114,40.8747812 L114,60.1252188 C114,60.6082188 114.391781,61 114.875438,61 L125.15625,61 L125.15625,53.125 L122.53125,53.125 L122.53125,49.84375 L125.15625,49.84375 L125.15625,47.21875 C125.15625,44.5064687 126.873656,43.1716562 129.29325,43.1716562 C130.452188,43.1716562 131.448375,43.2582813 131.738438,43.2963438 L131.738438,46.1313437 L130.060406,46.132 C128.744625,46.132 128.4375,46.7574063 128.4375,47.6748438 L128.4375,49.84375 L131.71875,49.84375 L131.0625,53.125 L128.4375,53.125 L128.49,61 L134.125219,61 C134.608219,61 135,60.6082188 135,60.1252188 L135,40.8747812 C135,40.3917812 134.608219,40 134.125219,40" id="Fill-3"></path>
        </g>
    </g>
</svg>