<?xml version="1.0" encoding="UTF-8"?>
<svg width="21px" height="21px" viewBox="0 0 21 21" version="1.1" xmlns="http://www.w3.org/2000/svg" xmlns:xlink="http://www.w3.org/1999/xlink">
    <title>Fill 23@3x</title>
    <g id="Symbols" stroke="none" stroke-width="1" fill="none" fill-rule="evenodd">
        <g id="Top_menu" transform="translate(-148.000000, -41.000000)" fill="#F9F9F9">
            <path d="M166.346154,60 L150.653846,60 C150.292923,60 150,59.692 150,59.3125 L150,49 L152.615385,49 C152.274731,49.515625 152.159654,50.4774375 152.159654,51.0879375 C152.159654,54.7695 155.015,57.7649375 158.524192,57.7649375 C162.034038,57.7649375 164.889385,54.7695 164.889385,51.0879375 C164.889385,50.4774375 164.807,49.5300625 164.384615,49 L167,49 L167,59.3125 C167,59.692 166.707077,60 166.346154,60 M158.999675,48 C161.209149,48 163,49.7910253 163,51.9996742 C163,54.2089747 161.209149,56 158.999675,56 C156.790851,56 155,54.2089747 155,51.9996742 C155,49.7910253 156.790851,48 158.999675,48 M163.6,44 L165.4,44 C165.7312,44 166,44.2688 166,44.6 L166,46.4 C166,46.7312 165.7312,47 165.4,47 L163.6,47 C163.2688,47 163,46.7312 163,46.4 L163,44.6 C163,44.2688 163.2688,44 163.6,44 M166.503625,41 L150.496375,41 C149.117594,41 148,42.1149687 148,43.4904687 L148,59.5095313 C148,60.8850313 149.117594,62 150.496375,62 L166.503625,62 C167.882406,62 169,60.8850313 169,59.5095313 L169,43.4904687 C169,42.1149687 167.882406,41 166.503625,41" id="Fill-23"></path>
        </g>
    </g>
</svg>