<?xml version="1.0" encoding="UTF-8"?>
<svg width="187px" height="67px" viewBox="0 0 187 67" version="1.1" xmlns="http://www.w3.org/2000/svg" xmlns:xlink="http://www.w3.org/1999/xlink">
    <title>Logo_mask copy@3x</title>
    <g id="Symbols" stroke="none" stroke-width="1" fill="none" fill-rule="evenodd">
        <g id="Top_menu" transform="translate(-1168.000000, -15.000000)" fill="#FFFFFF" fill-rule="nonzero">
            <g id="Logo_mask-copy" transform="translate(1168.000000, 15.000000)">
                <path d="M81.2601655,38.9678176 L81.2601655,49.809958 C81.2601655,50.1806906 81.5633213,50.4838991 81.941775,50.4838991 L81.9555251,50.4838991 C82.3293954,50.4838991 82.6338608,50.7858091 82.6338608,51.1558924 L82.6338608,52.9920247 C82.6338608,53.3614586 82.3293954,53.6640179 81.9555251,53.6640179 L73.2609113,53.6640179 C72.8857314,53.6640179 72.5806113,53.3614586 72.5806113,52.9920247 L72.5806113,51.1558924 C72.5806113,50.7858091 72.8857314,50.4838991 73.2609113,50.4838991 L76.2695528,50.4838991 C76.6434231,50.4838991 76.9485432,50.1806906 76.9485432,49.809958 L76.9485432,41.4811373 C76.9485432,41.1091062 76.6434231,40.806547 76.2695528,40.806547 L73.2609113,40.806547 C72.8857314,40.806547 72.5806113,40.5059355 72.5806113,40.1332552 L72.5806113,37.9887202 C72.5806113,37.872501 72.6421591,37.7725136 72.7259689,37.7056389 L-4.97379915e-14,29.9105172 L-4.97379915e-14,58.5069142 L93.5972325,58.5069142 L93.5972325,39.9456165 L81.6071905,38.6607134 C81.4238565,38.6392875 81.2601655,38.7834252 81.2601655,38.9678176 M29.2437334,14.1060149 L29.2437334,30.9941469 L49.1217196,33.1256965 C49.3063631,33.1445253 49.4648161,33.0023354 49.4648161,32.8166445 L49.4648161,22.3666625 C49.4648161,21.9952807 49.1642793,21.6946692 48.7904089,21.6946692 L46.1039114,21.6946692 C45.7267673,21.6946692 45.424921,21.3908114 45.424921,21.0194296 L45.424921,19.1852451 C45.424921,18.8138633 45.7267673,18.5132519 46.1039114,18.5132519 L54.6106079,18.5132519 C54.9857878,18.5132519 55.2915627,18.8138633 55.2915627,19.1852451 L55.2915627,21.0194296 C55.2915627,21.3908114 54.9857878,21.6946692 54.6106079,21.6946692 L54.4619764,21.6946692 C54.0841775,21.6946692 53.7803669,21.9952807 53.7803669,22.3666625 L53.7803669,33.3438508 C53.7803669,33.5022724 53.899534,33.6379696 54.0586417,33.6548506 L61.0842615,34.4073532 C61.0331899,34.3463219 61.0030707,34.2710068 61.0030707,34.1885496 L61.0030707,25.0098359 C61.0030707,22.5484577 60.5427715,21.6946692 58.8737776,21.6946692 L57.289903,21.6946692 C56.912104,21.6946692 56.6089482,21.3908114 56.6089482,21.0194296 L56.6089482,19.1852451 C56.6089482,18.8138633 56.912104,18.5132519 57.289903,18.5132519 L60.0052101,18.5132519 C64.4785591,18.5132519 65.3140382,20.3032861 65.3140382,24.848168 L65.3140382,33.8769006 C65.3140382,34.2515287 65.0102276,34.5514909 64.6350478,34.5514909 L62.4271829,34.5514909 L107.603948,39.3917901 L107.603948,14.1060149 L29.2437334,14.1060149 L29.2437334,14.1060149 Z M78.9272407,33.8769006 C78.9272407,34.2515287 78.6240848,34.5514909 78.2489049,34.5514909 L73.650496,34.5514909 C73.2733518,34.5514909 72.9695412,34.2515287 72.9695412,33.8769006 L72.9695412,32.0427161 C72.9695412,31.6745806 73.2733518,31.3707228 73.650496,31.3707228 L74.0158544,31.3707228 C74.3943081,31.3707228 74.6948449,31.0675143 74.6948449,30.6961325 L74.6948449,23.9398409 C74.6948449,22.1485081 74.3465103,21.5875399 73.0801964,21.5875399 L72.6500163,21.5875399 L71.4144763,33.9437753 C71.3784642,34.288537 71.0877489,34.5521402 70.7394144,34.5521402 L67.9311307,34.5521402 C67.5271412,34.5521402 67.2128544,34.2060799 67.2560688,33.8080781 L68.4700017,22.4400298 C68.5125613,22.0426773 68.1982745,21.6959677 67.7955945,21.6959677 L67.7746421,21.6959677 C67.3994622,21.6959677 67.0963064,21.3921099 67.0963064,21.0207282 L67.0963064,19.1865437 C67.0963064,18.8151619 67.3994622,18.5145504 67.7746421,18.5145504 L73.5372218,18.5145504 C77.7427722,18.5145504 78.9285502,20.2513446 78.9285502,25.1708546 L78.9285502,33.8769006 L78.9272407,33.8769006 Z M85.3950014,33.8769006 C85.3950014,34.2515287 85.0911908,34.5514909 84.7173205,34.5514909 L81.7649887,34.5514909 C81.3898088,34.5514909 81.086653,34.2515287 81.086653,33.8769006 L81.086653,25.227341 C81.086653,24.8566085 81.3898088,24.5540492 81.7649887,24.5540492 L84.7173205,24.5540492 C85.0911908,24.5540492 85.3950014,24.8566085 85.3950014,25.227341 L85.3950014,33.8769006 L85.3950014,33.8769006 Z M91.9727625,33.8769006 C91.9727625,34.2515287 91.6689519,34.5514909 91.2918078,34.5514909 L88.3375117,34.5514909 C87.9642961,34.5514909 87.659176,34.2515287 87.659176,33.8769006 L87.659176,22.3666625 C87.659176,21.9952807 87.3573297,21.6946692 86.9801855,21.6946692 L81.7342148,21.6946692 C81.3623087,21.6946692 81.0552243,21.3908114 81.0552243,21.0194296 L81.0552243,19.1852451 C81.0552243,18.8138633 81.3623087,18.5132519 81.7342148,18.5132519 L91.2918078,18.5132519 C91.6689519,18.5132519 91.9727625,18.8138633 91.9727625,19.1852451 L91.9727625,33.8769006 Z M187,33.4996754 C187,14.9974611 171.874292,0 153.215477,0 C134.557971,0 119.432918,14.9981103 119.434882,33.4996754 C119.432918,51.9999419 134.557971,67 153.215477,67 C171.878221,67 187,51.9999419 187,33.4996754 M153.215477,61.8422083 C146.058249,61.8422083 139.523048,59.2250056 134.504935,54.9132112 L134.889282,54.9132112 L136.518335,54.9132112 L169.342319,54.9132112 L171.54691,54.9132112 L171.930602,54.9132112 C166.916418,59.2250056 160.375323,61.8422083 153.215477,61.8422083 M153.215477,37.6491526 L163.8148,49.7359414 L142.623357,49.7359414 L153.215477,37.6491526 Z M153.215477,29.3437055 L142.625321,17.2627601 L163.808252,17.2627601 L153.215477,29.3437055 Z M132.482369,14.0021319 L149.576298,33.496429 L132.482369,52.9939725 C127.624018,47.9134437 124.636329,41.0545677 124.636329,33.4996754 C124.636329,25.9434845 127.624673,19.0833099 132.482369,14.0021319 M153.215477,5.15973952 C160.375323,5.15973952 166.916418,7.77304662 171.930602,12.0854903 L168.347078,12.0854903 L168.347078,12.0874381 L138.089114,12.0874381 L138.089114,12.0854903 L134.504935,12.0854903 C139.523048,7.77304662 146.058904,5.15973952 153.215477,5.15973952 M181.799863,33.4996754 C181.799863,41.0545677 178.812174,47.9134437 173.951204,52.9939725 L156.85924,33.496429 L173.94924,14.0021319 C178.811519,19.0833099 181.799863,25.9434845 181.799863,33.4996754 M16.0587467,52.9920247 C16.0587467,53.3614586 15.7529718,53.6640179 15.3797562,53.6640179 L12.4215316,53.6640179 C12.0476612,53.6640179 11.7445054,53.3614586 11.7445054,52.9920247 L11.7445054,44.3411666 C11.7445054,43.967837 12.0476612,43.6678748 12.4215316,43.6678748 L15.3797562,43.6678748 C15.7523171,43.6678748 16.0587467,43.967837 16.0587467,44.3411666 L16.0587467,52.9920247 Z M22.6338888,52.9920247 C22.6338888,53.3614586 22.330733,53.6640179 21.9548983,53.6640179 L19.0019118,53.6640179 C18.6260771,53.6640179 18.3229213,53.3614586 18.3229213,52.9920247 L18.3229213,41.4811373 C18.3229213,41.1091062 18.0171464,40.806547 17.6413118,40.806547 L12.3959958,40.806547 C12.0247445,40.806547 11.7163505,40.5059355 11.7163505,40.1332552 L11.7163505,38.3003692 C11.7163505,37.9289874 12.0247445,37.6277267 12.3959958,37.6277267 L21.9548983,37.6277267 C22.330733,37.6277267 22.6338888,37.9289874 22.6338888,38.3003692 L22.6338888,52.9920247 L22.6338888,52.9920247 Z M34.2264889,40.1332552 C34.2264889,40.5059355 33.920714,40.806547 33.5468437,40.806547 L33.3942836,40.806547 C33.021068,40.806547 32.7152931,41.1091062 32.7152931,41.4811373 L32.7152931,52.9920247 C32.7152931,53.3614586 32.4095182,53.6640179 32.0363027,53.6640179 L29.0826614,53.6640179 C28.7074815,53.6640179 28.4036709,53.3614586 28.4036709,52.9920247 L28.4036709,41.4811373 C28.4036709,41.1091062 28.0985508,40.806547 27.7246804,40.806547 L25.0388377,40.806547 C24.6649673,40.806547 24.3598472,40.5059355 24.3598472,40.1332552 L24.3598472,38.3003692 C24.3598472,37.9289874 24.6649673,37.6277267 25.0388377,37.6277267 L33.5474984,37.6277267 C33.920714,37.6277267 34.2271437,37.9289874 34.2271437,38.3003692 L34.2271437,40.1332552 L34.2264889,40.1332552 Z M47.2458202,52.9920247 C47.2458202,53.3614586 46.9426644,53.6640179 46.5668297,53.6640179 L43.6086051,53.6640179 C43.2347347,53.6640179 42.9296146,53.3614586 42.9296146,52.9920247 L42.9296146,43.5613947 C42.9296146,41.3149245 42.5262799,40.806547 41.1237749,40.806547 L41.0497866,40.806547 C40.6719877,40.806547 40.3707961,41.1091062 40.3707961,41.4811373 L40.3707961,52.9920247 C40.3707961,53.3614586 40.0669855,53.6640179 39.6918056,53.6640179 L36.7362001,53.6640179 C36.3603654,53.6640179 36.0572096,53.3614586 36.0572096,52.9920247 L36.0572096,38.2997199 C36.0572096,37.9283382 36.3603654,37.6270774 36.7362001,37.6270774 L42.1242546,37.6270774 C45.7883151,37.6270774 47.246475,38.9632727 47.246475,43.6944948 L47.246475,52.9920247 L47.2458202,52.9920247 Z M57.7279402,48.1569196 C57.7279402,52.4888413 56.0301367,53.6640179 52.6358391,53.6640179 L49.6442215,53.6640179 C49.2742797,53.6640179 48.9691596,53.3614586 48.9691596,52.9920247 L48.9691596,51.1558924 C48.9691596,50.7858091 49.2742797,50.4838991 49.6442215,50.4838991 L50.8830353,50.4838991 C52.9586378,50.4838991 53.4169728,50.0027909 53.4169728,47.8381286 L53.4169728,43.4529668 C53.4169728,41.2883044 52.9586378,40.806547 50.8830353,40.806547 L49.6442215,40.806547 C49.2742797,40.806547 48.9691596,40.5059355 48.9691596,40.1332552 L48.9691596,38.3003692 C48.9691596,37.9289874 49.2742797,37.6277267 49.6442215,37.6277267 L52.6358391,37.6277267 C56.0307914,37.6277267 57.7279402,38.8029033 57.7279402,43.1315787 L57.7279402,48.1569196 Z M64.0621291,52.9920247 C64.0621291,53.3614586 63.7589733,53.6640179 63.3805195,53.6640179 L60.427533,53.6640179 C60.0543174,53.6640179 59.747233,53.3614586 59.747233,52.9920247 L59.747233,44.3411666 C59.747233,43.967837 60.0543174,43.6678748 60.427533,43.6678748 L63.3805195,43.6678748 C63.7589733,43.6678748 64.0621291,43.967837 64.0621291,44.3411666 L64.0621291,52.9920247 Z M70.6411997,52.9920247 C70.6411997,53.3614586 70.3360796,53.6640179 69.9622093,53.6640179 L67.0046394,53.6640179 C66.6314238,53.6640179 66.3256489,53.3614586 66.3256489,52.9920247 L66.3256489,41.4811373 C66.3256489,41.1091062 66.0251121,40.806547 65.6486227,40.806547 L60.4013424,40.806547 C60.0261626,40.806547 59.7230067,40.5059355 59.7230067,40.1332552 L59.7230067,38.3003692 C59.7230067,37.9289874 60.0261626,37.6277267 60.4013424,37.6277267 L69.9622093,37.6277267 C70.3360796,37.6277267 70.6411997,37.9289874 70.6411997,38.3003692 L70.6411997,52.9920247 Z" id="SVGID_1_"></path>
            </g>
        </g>
    </g>
</svg>