<?xml version="1.0" standalone="no"?>
<!DOCTYPE svg PUBLIC "-//W3C//DTD SVG 20010904//EN"
 "http://www.w3.org/TR/2001/REC-SVG-20010904/DTD/svg10.dtd">
<svg version="1.0" xmlns="http://www.w3.org/2000/svg"
 width="560.000000pt" height="560.000000pt" viewBox="0 0 560.000000 560.000000"
 preserveAspectRatio="xMidYMid meet">
<metadata>
Created by potrace 1.11, written by Peter Selinger 2001-2013
</metadata>
<g transform="translate(0.000000,560.000000) scale(0.100000,-0.100000)"
fill="#000000" stroke="none">
<path d="M2629 5496 c-2 -2 -44 -7 -94 -10 -49 -4 -98 -9 -110 -11 -11 -2 -37
-7 -57 -10 -21 -2 -59 -10 -85 -16 -27 -6 -59 -12 -73 -14 -73 -10 -344 -93
-427 -131 -17 -8 -33 -14 -36 -14 -16 0 -313 -150 -357 -180 -8 -5 -60 -40
-115 -77 -216 -143 -479 -385 -610 -561 -5 -7 -18 -22 -27 -33 -10 -10 -18
-23 -18 -28 0 -5 -4 -11 -8 -13 -10 -4 -116 -161 -158 -233 -15 -27 -31 -52
-34 -55 -6 -6 -77 -150 -113 -230 -42 -92 -110 -280 -122 -335 -1 -5 -7 -30
-14 -55 -7 -24 -19 -74 -27 -110 -8 -36 -17 -73 -19 -84 -2 -10 -7 -44 -11
-75 -3 -31 -8 -59 -10 -62 -10 -17 -18 -190 -18 -369 0 -229 5 -289 45 -505
11 -60 27 -132 35 -160 8 -27 15 -54 15 -60 6 -46 138 -383 182 -465 10 -19
28 -53 40 -75 160 -304 418 -610 703 -836 45 -35 91 -71 104 -79 12 -8 39 -26
59 -40 125 -88 367 -217 511 -273 106 -42 240 -87 240 -81 0 2 8 0 19 -5 10
-6 33 -13 51 -16 18 -3 41 -10 51 -16 11 -5 19 -8 19 -5 0 3 15 0 33 -5 58
-17 215 -42 342 -56 92 -9 431 -10 520 0 360 37 662 124 965 276 160 81 151
76 310 180 80 53 94 63 140 101 10 8 35 29 56 45 173 136 401 384 526 572 96
144 122 190 195 338 24 50 51 102 59 118 8 15 13 27 10 27 -3 0 6 24 18 52 21
46 82 226 91 268 2 8 15 65 29 125 14 61 28 133 32 160 3 28 8 59 10 70 18 92
25 473 11 605 -3 36 -9 88 -12 115 -3 28 -10 73 -15 101 -6 28 -13 64 -16 80
-3 16 -7 37 -10 46 -3 9 -6 25 -8 35 -2 10 -9 36 -15 58 -6 22 -11 43 -11 47
-1 16 -83 245 -101 285 -10 23 -19 45 -19 48 0 14 -114 233 -163 315 -66 109
-156 239 -214 307 -10 11 -32 39 -50 60 -97 119 -281 292 -428 402 -22 17 -49
37 -60 46 -23 18 -155 105 -160 105 -2 0 -32 17 -66 39 -76 45 -293 151 -312
151 -7 0 -17 4 -22 9 -12 12 -268 98 -314 106 -19 3 -38 8 -43 11 -9 6 -104
27 -169 38 -19 3 -45 8 -59 11 -14 3 -47 7 -75 10 -27 2 -61 7 -75 10 -26 7
-455 16 -461 11z m356 -420 c50 -3 101 -8 115 -11 14 -3 45 -8 70 -11 25 -3
61 -9 80 -14 19 -5 46 -11 60 -14 77 -13 270 -73 345 -105 11 -5 38 -17 60
-26 88 -38 174 -81 245 -123 74 -44 190 -120 200 -131 3 -3 12 -10 21 -16 41
-25 108 -81 109 -90 0 -10 -2974 -14 -2984 -4 -10 10 246 194 324 234 19 10
37 21 40 24 9 12 204 103 295 138 132 51 339 110 415 119 22 2 41 5 127 19 12
2 57 7 100 10 43 4 79 8 80 9 4 3 217 -2 298 -8z m-1766 -806 c12 -14 46 -52
74 -84 29 -32 60 -68 70 -80 10 -12 44 -50 75 -85 31 -35 63 -72 69 -82 7 -9
27 -32 45 -51 18 -19 58 -63 88 -98 30 -35 66 -76 80 -91 14 -15 36 -40 49
-56 24 -28 134 -154 178 -203 12 -14 32 -36 44 -50 78 -91 116 -135 130 -149
8 -9 62 -70 119 -136 58 -66 109 -125 115 -131 9 -10 71 -81 124 -143 24 -28
26 -38 9 -55 -7 -7 -40 -44 -73 -81 -33 -38 -67 -76 -75 -85 -8 -9 -58 -65
-110 -125 -125 -144 -141 -163 -165 -189 -11 -12 -42 -48 -70 -81 -27 -32 -63
-73 -80 -90 -16 -18 -50 -56 -75 -85 -25 -29 -52 -60 -60 -70 -8 -9 -40 -45
-70 -80 -30 -35 -68 -78 -85 -95 -16 -18 -48 -54 -70 -80 -21 -25 -48 -57 -60
-69 -41 -46 -127 -145 -225 -260 -14 -16 -30 -34 -36 -40 -5 -6 -31 -34 -56
-62 -52 -59 -48 -60 -123 31 -28 33 -58 69 -68 80 -37 40 -187 272 -229 355
-73 142 -139 306 -170 420 -26 98 -31 117 -34 135 -1 11 -5 31 -9 45 -3 14 -7
36 -10 50 -3 14 -7 34 -9 45 -20 104 -29 470 -13 605 43 386 181 746 408 1065
73 103 110 149 166 208 l46 48 32 -38 c18 -21 43 -49 54 -63z m3310 36 c47
-50 215 -274 216 -286 0 -3 14 -25 30 -50 83 -130 219 -441 240 -550 2 -8 8
-35 15 -60 7 -25 14 -56 16 -70 3 -14 7 -33 10 -42 5 -18 7 -28 19 -103 18
-112 23 -208 19 -385 -2 -107 -5 -211 -8 -230 -28 -215 -79 -404 -163 -609
-19 -46 -39 -91 -43 -100 -70 -130 -125 -227 -132 -229 -4 -2 -8 -8 -8 -13 0
-9 -118 -178 -143 -204 -7 -7 -30 -34 -52 -60 -65 -78 -78 -88 -90 -72 -5 7
-33 40 -62 73 -28 32 -60 68 -70 80 -24 28 -127 145 -183 209 -25 28 -70 80
-100 115 -30 35 -62 71 -70 80 -20 21 -130 147 -161 184 -13 16 -35 41 -49 56
-37 40 -77 86 -150 170 -35 41 -69 80 -75 86 -9 10 -87 99 -132 150 -24 28
-124 142 -143 164 -8 9 -40 45 -70 80 -30 35 -65 74 -77 87 -24 25 -27 17 45
98 15 16 76 86 136 155 60 69 118 135 130 146 11 12 35 39 53 60 17 22 40 48
50 59 10 11 63 72 118 135 55 63 104 120 110 126 5 6 35 40 65 75 30 35 64 73
75 84 11 12 52 60 92 106 40 47 83 96 95 110 13 13 48 53 78 88 30 36 62 72
70 81 36 39 141 160 225 256 12 14 22 7 74 -50z m-926 -254 c-26 -31 -55 -64
-63 -73 -8 -8 -30 -33 -49 -55 -19 -21 -51 -57 -70 -79 -36 -41 -143 -163
-171 -195 -8 -9 -37 -43 -65 -75 -27 -32 -60 -69 -73 -83 -12 -14 -40 -46 -62
-72 -22 -26 -50 -58 -62 -72 -44 -47 -146 -163 -167 -188 l-21 -25 -27 31
c-16 17 -82 93 -148 169 -66 76 -124 143 -130 149 -5 6 -41 47 -80 91 -38 44
-74 85 -80 91 -5 6 -35 40 -65 74 -30 35 -75 87 -100 115 -119 135 -170 193
-195 222 l-27 33 852 -1 851 0 -48 -57z m-761 -1634 c20 -24 47 -55 59 -69 33
-35 72 -80 149 -169 36 -41 67 -77 70 -80 3 -3 34 -39 70 -80 36 -41 70 -80
75 -86 6 -6 33 -37 60 -69 28 -32 55 -63 61 -69 5 -6 47 -54 93 -106 46 -52
95 -109 109 -125 15 -17 35 -40 45 -52 l19 -21 -852 -1 c-920 0 -859 -3 -815
45 6 6 37 41 70 79 33 38 69 78 80 91 11 12 43 48 70 80 83 96 99 115 125 143
14 15 52 58 85 97 33 38 62 71 65 74 3 3 34 39 70 80 36 41 77 88 92 105 14
16 35 39 45 51 90 104 108 124 114 124 3 0 22 -19 41 -42z m1457 -1348 c-1
-16 -283 -215 -362 -255 -286 -149 -490 -222 -742 -265 -77 -13 -91 -15 -215
-26 -141 -12 -404 -6 -480 12 -14 3 -32 6 -40 6 -8 0 -33 4 -55 9 -22 4 -56
11 -75 14 -19 3 -53 11 -75 17 -22 5 -50 12 -62 14 -115 21 -561 218 -622 275
-11 10 -23 19 -27 19 -10 0 -156 105 -202 146 l-44 39 1501 0 c826 0 1501 -2
1500 -5z"/>
</g>
</svg>
