<?xml version="1.0" standalone="no"?>
<!DOCTYPE svg PUBLIC "-//W3C//DTD SVG 20010904//EN"
 "http://www.w3.org/TR/2001/REC-SVG-20010904/DTD/svg10.dtd">
<svg version="1.0" xmlns="http://www.w3.org/2000/svg"
 width="4637.000000pt" height="2953.000000pt" viewBox="0 0 4637.000000 2953.000000"
 preserveAspectRatio="xMidYMid meet">
<metadata>
Created by potrace 1.16, written by Peter Selinger 2001-2019
</metadata>
<g transform="translate(0.000000,2953.000000) scale(0.100000,-0.100000)"
fill="#000000" stroke="none">
<path d="M36850 28905 c0 -45 0 -45 35 -45 l35 0 0 -75 0 -75 60 0 60 0 0 120
0 120 -95 0 -95 0 0 -45z"/>
<path d="M37130 28905 c0 -45 0 -45 35 -45 l36 0 -3 -117 -3 -118 -42 -3 -43
-3 0 -45 0 -44 59 0 c77 0 106 12 131 52 18 30 20 51 20 201 l0 167 -95 0 -95
0 0 -45z"/>
<path d="M37390 28905 c0 -38 3 -45 20 -45 19 0 20 -7 20 -160 l0 -160 60 0
60 0 0 205 0 205 -80 0 -80 0 0 -45z"/>
<path d="M37640 28905 l0 -45 50 0 50 0 0 -80 c0 -73 -2 -82 -27 -110 -20 -23
-40 -33 -70 -37 l-43 -6 0 -48 0 -49 39 0 c44 0 94 35 107 73 7 19 9 17 19
-18 12 -40 12 -40 67 -43 l55 -3 -18 83 c-12 55 -19 125 -19 206 l0 122 -105
0 -105 0 0 -45z"/>
<path d="M37920 28905 l0 -45 78 0 c47 0 83 -5 90 -12 8 -8 12 -58 12 -160 l0
-148 60 0 60 0 0 153 c0 125 -3 158 -18 186 -27 55 -70 71 -184 71 l-98 0 0
-45z"/>
<path d="M38335 28886 l45 -63 -22 -19 c-35 -32 -48 -77 -48 -174 l0 -90 55 0
55 0 0 94 c0 52 4 97 9 101 5 3 40 -39 78 -92 l69 -98 68 -3 68 -3 -61 87 -60
88 59 112 c33 61 60 114 60 118 0 3 -28 6 -63 6 l-63 0 -29 -61 c-16 -33 -32
-62 -36 -65 -4 -2 -26 25 -49 61 l-42 65 -69 0 -68 0 44 -64z"/>
<path d="M38950 28905 c0 -43 1 -45 29 -45 29 0 29 -1 20 -32 -5 -18 -9 -67
-9 -108 0 -81 -9 -100 -47 -100 -21 0 -23 -5 -23 -45 l0 -45 50 0 c62 0 101
19 120 57 8 16 16 79 19 148 l6 120 40 3 c60 5 65 -8 65 -175 l0 -143 61 0 61
0 -3 159 c-4 142 -6 163 -25 188 -39 53 -75 63 -226 63 l-138 0 0 -45z"/>
<path d="M39390 28905 c0 -38 3 -45 20 -45 19 0 20 -7 20 -160 l0 -160 60 0
60 0 0 205 0 205 -80 0 -80 0 0 -45z"/>
<path d="M39620 28905 c0 -38 3 -45 20 -45 19 0 20 -7 20 -160 l0 -160 60 0
60 0 0 205 0 205 -80 0 -80 0 0 -45z"/>
<path d="M39840 28945 c0 -3 47 -73 105 -157 l105 -153 -90 -3 -90 -3 0 -44 0
-45 170 0 c169 0 170 0 170 22 0 13 -21 54 -47 91 l-48 69 58 108 c31 59 57
111 57 114 0 3 -28 6 -63 6 l-63 0 -30 -62 -31 -61 -37 61 -37 62 -65 0 c-35
0 -64 -2 -64 -5z"/>
<path d="M37031 27539 c-24 -5 -46 -11 -49 -13 -2 -3 0 -22 5 -43 7 -31 13
-37 30 -35 22 3 22 2 5 -30 -10 -21 -16 -57 -15 -100 1 -123 72 -198 187 -198
67 0 124 26 156 70 32 45 46 141 31 212 -23 109 -82 148 -221 147 -47 -1 -105
-5 -129 -10z m199 -89 c60 -32 50 -220 -14 -236 -57 -14 -96 32 -96 113 0 105
47 157 110 123z"/>
<path d="M35830 27335 l0 -205 180 0 180 0 0 205 0 205 -180 0 -180 0 0 -205z
m250 0 l0 -115 -65 0 -65 0 0 115 0 115 65 0 65 0 0 -115z"/>
<path d="M36250 27495 c0 -45 0 -45 35 -45 l35 0 0 -75 0 -75 60 0 60 0 0 120
0 120 -95 0 -95 0 0 -45z"/>
<path d="M36530 27495 c0 -38 3 -45 20 -45 17 0 18 -3 10 -26 -6 -14 -10 -47
-10 -74 0 -60 14 -70 94 -70 l56 0 0 40 c0 33 -3 40 -20 40 -21 0 -26 23 -14
68 6 20 13 22 65 22 l59 0 0 -95 c0 -90 -2 -98 -26 -122 -24 -24 -30 -25 -97
-20 -40 2 -79 8 -88 11 -12 5 -18 -3 -26 -38 l-10 -45 49 -10 c117 -26 221 -8
268 45 41 47 50 91 50 237 l0 127 -190 0 -190 0 0 -45z"/>
<path d="M37450 27495 l0 -45 95 0 95 0 0 -98 c0 -92 -2 -100 -25 -122 -22
-20 -31 -22 -94 -18 l-69 5 -6 -40 c-4 -22 -4 -42 -1 -45 3 -3 45 -8 93 -10
76 -3 93 0 132 20 74 38 84 67 88 246 l4 152 -156 0 -156 0 0 -45z"/>
<path d="M38010 27495 c0 -43 1 -45 29 -45 29 0 29 -1 20 -32 -5 -18 -9 -67
-9 -108 0 -81 -9 -100 -47 -100 -21 0 -23 -5 -23 -45 l0 -45 50 0 c62 0 101
19 120 57 8 16 16 79 19 148 l6 120 40 3 c60 5 65 -8 65 -175 l0 -143 61 0 61
0 -3 159 c-4 142 -6 163 -25 188 -39 53 -75 63 -226 63 l-138 0 0 -45z"/>
<path d="M38460 27495 c0 -38 3 -45 20 -45 19 0 20 -7 20 -160 l0 -160 60 0
60 0 0 205 0 205 -80 0 -80 0 0 -45z"/>
<path d="M38690 27495 c0 -38 3 -45 20 -45 19 0 20 -7 20 -160 l0 -160 60 0
60 0 0 205 0 205 -80 0 -80 0 0 -45z"/>
<path d="M38910 27535 c0 -3 47 -73 105 -157 l105 -153 -90 -3 -90 -3 0 -44 0
-45 170 0 c169 0 170 0 170 22 0 13 -21 54 -47 91 l-48 69 58 108 c31 59 57
111 57 114 0 3 -28 6 -63 6 l-63 0 -30 -62 -31 -61 -37 61 -37 62 -65 0 c-35
0 -64 -2 -64 -5z"/>
<path d="M22540 27084 c-241 -28 -350 -49 -530 -100 -337 -96 -707 -289 -985
-514 -107 -86 -335 -315 -419 -420 -314 -394 -510 -848 -587 -1360 -18 -116
-22 -193 -23 -383 l-1 -238 -40 -10 c-272 -73 -677 -200 -945 -299 -142 -52
-165 -58 -173 -44 -25 44 -129 190 -195 274 -89 111 -305 330 -412 416 -393
317 -845 515 -1365 600 -154 25 -545 30 -720 10 -339 -39 -634 -127 -935 -277
-534 -268 -965 -693 -1233 -1217 -129 -253 -203 -464 -257 -732 -97 -484 -68
-973 85 -1435 98 -296 251 -583 447 -837 l59 -76 -119 -149 c-238 -298 -616
-824 -601 -837 2 -2 47 -22 99 -45 l95 -42 17 23 c9 13 65 93 124 178 147 214
448 613 520 689 11 12 24 4 89 -55 141 -127 239 -205 375 -296 146 -97 416
-235 573 -293 594 -217 1251 -231 1842 -39 711 232 1301 738 1633 1402 377
755 399 1620 61 2391 -33 74 -56 138 -52 142 34 30 1045 354 1057 338 1 -2 15
-63 29 -136 105 -514 374 -1009 757 -1394 422 -423 965 -697 1571 -790 191
-30 587 -33 778 -6 487 69 948 260 1334 554 132 101 346 309 460 448 295 360
505 810 586 1259 6 33 13 61 15 63 15 15 812 -237 1047 -332 13 -5 28 13 68
84 28 50 51 94 51 99 0 20 -681 246 -1010 336 l-125 34 -6 268 c-6 270 -17
373 -59 566 -112 515 -376 994 -755 1373 -426 427 -950 690 -1570 791 -96 15
-567 28 -655 18z"/>
<path d="M35440 26175 l0 -105 109 0 109 0 -59 -140 c-32 -77 -63 -149 -69
-160 -11 -20 -9 -21 55 -18 l67 3 69 170 c37 94 68 185 69 203 l0 32 -115 0
-115 0 0 60 0 60 -60 0 -60 0 0 -105z"/>
<path d="M34250 26115 l0 -45 103 0 c67 0 107 -4 115 -12 8 -8 12 -58 12 -160
l0 -148 60 0 60 0 0 151 c0 176 -10 208 -71 239 -32 17 -59 20 -159 20 l-120
0 0 -45z"/>
<path d="M34650 26115 c0 -45 0 -45 35 -45 l35 0 0 -75 0 -75 60 0 60 0 0 120
0 120 -95 0 -95 0 0 -45z"/>
<path d="M34920 26115 l0 -45 50 0 50 0 0 -80 c0 -73 -2 -82 -27 -110 -20 -23
-40 -33 -70 -37 l-43 -6 0 -48 0 -49 39 0 c44 0 94 35 107 73 7 19 9 17 19
-18 12 -40 12 -40 67 -43 l55 -3 -18 83 c-12 55 -19 125 -19 206 l0 122 -105
0 -105 0 0 -45z"/>
<path d="M35220 26115 c0 -38 3 -45 20 -45 19 0 20 -7 20 -160 l0 -160 60 0
60 0 0 205 0 205 -80 0 -80 0 0 -45z"/>
<path d="M35830 26115 c0 -38 3 -45 20 -45 19 0 20 -7 20 -160 l0 -160 60 0
60 0 0 205 0 205 -80 0 -80 0 0 -45z"/>
<path d="M36080 26115 c0 -45 0 -45 35 -45 l36 0 -3 -117 -3 -118 -42 -3 -43
-3 0 -45 0 -44 59 0 c77 0 106 12 131 52 18 30 20 51 20 201 l0 167 -95 0 -95
0 0 -45z"/>
<path d="M36350 26115 l0 -45 95 0 95 0 0 -98 c0 -92 -2 -100 -25 -122 -22
-20 -31 -22 -94 -18 l-69 5 -6 -40 c-4 -22 -4 -42 -1 -45 3 -3 45 -8 93 -10
76 -3 93 0 132 20 74 38 84 67 88 246 l4 152 -156 0 -156 0 0 -45z"/>
<path d="M36762 26008 c3 -140 5 -156 27 -191 35 -56 89 -80 172 -75 73 4 104
20 143 72 19 24 21 42 21 158 l0 130 -34 30 c-31 28 -38 30 -97 26 -35 -2 -66
-7 -70 -10 -3 -4 -3 -23 0 -42 6 -32 10 -35 44 -38 l37 -3 3 -99 c2 -81 0
-102 -14 -117 -22 -25 -69 -24 -94 1 -18 18 -20 33 -20 165 l0 145 -61 0 -61
0 4 -152z"/>
<path d="M37370 26115 c0 -43 1 -45 29 -45 29 0 29 -1 20 -32 -5 -18 -9 -67
-9 -108 0 -81 -9 -100 -47 -100 -21 0 -23 -5 -23 -45 l0 -45 50 0 c62 0 101
19 120 57 8 16 16 79 19 148 l6 120 40 3 c60 5 65 -8 65 -175 l0 -143 61 0 61
0 -3 159 c-4 142 -6 163 -25 188 -39 53 -75 63 -226 63 l-138 0 0 -45z"/>
<path d="M37820 26115 c0 -38 3 -45 20 -45 19 0 20 -7 20 -160 l0 -160 60 0
60 0 0 205 0 205 -80 0 -80 0 0 -45z"/>
<path d="M38050 26115 c0 -38 3 -45 20 -45 19 0 20 -7 20 -160 l0 -160 60 0
60 0 0 205 0 205 -80 0 -80 0 0 -45z"/>
<path d="M38260 26155 c0 -3 47 -73 105 -157 l105 -153 -90 -3 -90 -3 0 -44 0
-45 170 0 c169 0 170 0 170 22 0 13 -21 54 -47 91 l-48 69 58 108 c31 59 57
111 57 114 0 3 -28 6 -63 6 l-63 0 -30 -62 -31 -61 -37 61 -37 62 -65 0 c-35
0 -64 -2 -64 -5z"/>
<path d="M34255 25963 c-4 -10 -10 -62 -13 -115 l-5 -98 62 0 61 0 0 115 0
115 -49 0 c-37 0 -51 -4 -56 -17z"/>
<path d="M35150 24873 c-59 -10 -91 -25 -86 -40 4 -8 9 -26 12 -40 5 -20 11
-23 30 -19 27 7 29 3 14 -24 -7 -14 -39 -240 -40 -282 0 -5 26 -8 58 -8 l58 0
13 130 c16 172 26 199 78 200 40 0 53 -35 53 -142 l0 -98 -35 0 c-35 0 -35 0
-35 -45 l0 -45 96 0 96 0 -4 153 c-4 178 -14 207 -88 245 -35 17 -59 22 -120
21 -41 -1 -86 -4 -100 -6z"/>
<path d="M33260 24825 c0 -45 0 -45 35 -45 l35 0 0 -75 0 -75 60 0 60 0 0 120
0 120 -95 0 -95 0 0 -45z"/>
<path d="M33542 24718 c3 -140 5 -156 27 -191 35 -56 89 -80 172 -75 73 4 104
20 143 72 19 24 21 42 21 158 l0 130 -34 30 c-31 28 -38 30 -97 26 -35 -2 -66
-7 -70 -10 -3 -4 -3 -23 0 -42 6 -32 10 -35 44 -38 l37 -3 3 -99 c2 -81 0
-102 -14 -117 -22 -25 -69 -24 -94 1 -18 18 -20 33 -20 165 l0 145 -61 0 -61
0 4 -152z"/>
<path d="M33990 24825 c0 -38 3 -45 20 -45 17 0 18 -3 10 -26 -6 -14 -10 -47
-10 -74 0 -60 14 -70 94 -70 l56 0 0 40 c0 33 -3 40 -20 40 -21 0 -26 23 -14
68 6 20 13 22 65 22 l59 0 0 -95 c0 -90 -2 -98 -26 -122 -24 -24 -30 -25 -97
-20 -40 2 -79 8 -88 11 -12 5 -18 -3 -26 -38 l-10 -45 49 -10 c117 -26 221 -8
268 45 41 47 50 91 50 237 l0 127 -190 0 -190 0 0 -45z"/>
<path d="M34472 24683 l3 -186 55 -20 c43 -16 81 -21 175 -21 115 -1 122 0
173 28 36 20 62 44 78 71 22 39 24 52 24 178 l0 137 -55 0 -55 0 0 -117 c0
-128 -7 -153 -53 -187 -33 -25 -138 -34 -191 -16 l-36 12 0 154 0 154 -60 0
-60 0 2 -187z"/>
<path d="M34670 24762 c0 -59 -4 -122 -9 -140 l-10 -32 54 0 c51 0 54 1 64 31
6 18 11 81 11 140 l0 109 -55 0 -55 0 0 -108z"/>
<path d="M35710 24825 c0 -43 1 -45 29 -45 29 0 29 -1 20 -32 -5 -18 -9 -67
-9 -108 0 -81 -9 -100 -47 -100 -21 0 -23 -5 -23 -45 l0 -45 50 0 c62 0 101
19 120 57 8 16 16 79 19 148 l6 120 40 3 c60 5 65 -8 65 -175 l0 -143 61 0 61
0 -3 159 c-4 142 -6 163 -25 188 -39 53 -75 63 -226 63 l-138 0 0 -45z"/>
<path d="M36150 24825 c0 -38 3 -45 20 -45 19 0 20 -7 20 -160 l0 -160 60 0
60 0 0 205 0 205 -80 0 -80 0 0 -45z"/>
<path d="M36380 24825 c0 -38 3 -45 20 -45 19 0 20 -7 20 -160 l0 -160 60 0
60 0 0 205 0 205 -80 0 -80 0 0 -45z"/>
<path d="M36600 24865 c0 -3 47 -73 105 -157 l105 -153 -90 -3 -90 -3 0 -44 0
-45 170 0 c169 0 170 0 170 22 0 13 -21 54 -47 91 l-48 69 58 108 c31 59 57
111 57 114 0 3 -28 6 -63 6 l-63 0 -30 -62 -31 -61 -37 61 -37 62 -65 0 c-35
0 -64 -2 -64 -5z"/>
<path d="M28000 23010 l0 -50 36 0 c26 0 33 -3 27 -12 -4 -7 -10 -69 -13 -136
-5 -107 -8 -126 -25 -138 -10 -8 -29 -14 -42 -14 -21 0 -23 -4 -23 -50 l0 -50
56 0 c76 0 118 22 144 74 17 35 20 62 20 162 0 157 2 164 51 164 26 0 46 -7
59 -20 18 -18 20 -33 20 -195 l0 -175 71 0 71 0 -4 188 c-4 217 -11 241 -88
280 -40 20 -58 22 -202 22 l-158 0 0 -50z"/>
<path d="M28516 23048 c4 -7 61 -93 126 -190 65 -98 118 -180 118 -183 0 -3
-47 -5 -105 -5 l-105 0 0 -50 0 -50 195 0 195 0 0 30 c0 20 -17 56 -50 105
-27 41 -50 78 -50 83 0 5 31 68 69 140 l69 132 -78 0 -77 0 -35 -76 -35 -77
-45 74 -44 74 -78 3 c-61 2 -76 0 -70 -10z"/>
<path d="M29020 23010 c0 -43 3 -50 20 -50 19 0 20 -7 20 -195 l0 -195 70 0
70 0 0 245 0 245 -90 0 -90 0 0 -50z"/>
<path d="M29300 23011 l0 -49 91 -4 c119 -4 119 -4 119 -165 l0 -123 -115 0
-115 0 0 -50 0 -50 215 0 215 0 0 50 c0 49 -1 50 -30 50 l-30 0 0 128 c0 113
-3 133 -22 172 -36 70 -85 90 -220 90 l-108 0 0 -49z"/>
<path d="M29770 23010 l0 -50 146 0 146 0 -4 -109 c-4 -124 -19 -158 -77 -175
-29 -8 -31 -12 -31 -57 0 -49 0 -49 34 -49 78 0 157 48 187 114 16 35 19 67
19 209 l0 167 -210 0 -210 0 0 -50z"/>
<path d="M29790 22821 c-6 -12 -10 -101 -10 -220 l0 -201 65 0 64 0 3 220 3
220 -57 0 c-46 0 -59 -4 -68 -19z"/>
<path d="M27700 22010 l0 -50 36 0 c26 0 33 -3 27 -12 -4 -7 -10 -69 -13 -136
-5 -107 -8 -126 -25 -138 -10 -8 -29 -14 -42 -14 -21 0 -23 -4 -23 -50 l0 -50
56 0 c76 0 118 22 144 74 17 35 20 62 20 162 0 157 2 164 51 164 26 0 46 -7
59 -20 18 -18 20 -33 20 -195 l0 -175 71 0 71 0 -4 188 c-4 217 -11 241 -88
280 -40 20 -58 22 -202 22 l-158 0 0 -50z"/>
<path d="M28230 22010 c0 -43 3 -50 20 -50 19 0 20 -7 20 -195 l0 -195 70 0
70 0 0 245 0 245 -90 0 -90 0 0 -50z"/>
<path d="M28490 22010 l0 -50 35 0 35 0 0 -90 0 -90 70 0 70 0 0 140 0 140
-105 0 -105 0 0 -50z"/>
<path d="M28790 22010 l0 -50 36 0 c26 0 33 -3 27 -12 -4 -7 -10 -69 -13 -136
-5 -107 -8 -126 -25 -138 -10 -8 -29 -14 -42 -14 -21 0 -23 -4 -23 -50 l0 -50
56 0 c76 0 118 22 144 74 17 35 20 62 20 162 0 157 2 164 51 164 26 0 46 -7
59 -20 18 -18 20 -33 20 -195 l0 -175 71 0 71 0 -4 188 c-4 217 -11 241 -88
280 -40 20 -58 22 -202 22 l-158 0 0 -50z"/>
<path d="M29352 21838 l3 -222 70 -25 c61 -22 87 -25 200 -26 115 0 136 3 180
23 63 29 102 66 126 117 16 34 19 66 19 198 l0 157 -64 0 -65 0 -3 -149 c-3
-166 -10 -186 -78 -225 -40 -24 -143 -27 -212 -7 l-48 14 0 183 0 184 -65 0
-65 0 2 -222z"/>
<path d="M29580 21918 c0 -79 -3 -153 -6 -166 -6 -22 -5 -23 52 -20 79 4 84
14 84 191 l0 137 -65 0 -65 0 0 -142z"/>
<path d="M30050 22010 l0 -50 36 0 c26 0 33 -3 27 -12 -4 -7 -10 -69 -13 -136
-5 -107 -8 -126 -25 -138 -10 -8 -29 -14 -42 -14 -21 0 -23 -4 -23 -50 l0 -50
56 0 c76 0 118 22 144 74 17 35 20 62 20 162 0 157 2 164 51 164 26 0 46 -7
59 -20 18 -18 20 -33 20 -195 l0 -175 71 0 71 0 -4 188 c-4 217 -11 241 -88
280 -40 20 -58 22 -202 22 l-158 0 0 -50z"/>
<path d="M60 21835 l0 -205 180 0 180 0 0 205 0 205 -180 0 -180 0 0 -205z
m250 0 l0 -115 -65 0 -65 0 0 115 0 115 65 0 65 0 0 -115z"/>
<path d="M490 21995 c0 -38 3 -45 20 -45 19 0 20 -7 20 -160 l0 -160 60 0 60
0 0 205 0 205 -80 0 -80 0 0 -45z"/>
<path d="M740 21995 l0 -45 50 0 50 0 0 -80 c0 -73 -2 -82 -27 -110 -20 -23
-40 -33 -70 -37 l-43 -6 0 -48 0 -49 39 0 c44 0 94 35 107 73 7 19 9 17 19
-18 12 -40 12 -40 67 -43 l55 -3 -18 83 c-12 55 -19 125 -19 206 l0 122 -105
0 -105 0 0 -45z"/>
<path d="M1030 21995 l0 -45 78 0 c47 0 83 -5 90 -12 8 -8 12 -58 12 -160 l0
-148 60 0 60 0 0 153 c0 125 -3 158 -18 186 -27 55 -70 71 -184 71 l-98 0 0
-45z"/>
<path d="M1400 21995 c0 -43 1 -45 29 -45 29 0 29 -1 20 -32 -5 -18 -9 -67 -9
-108 0 -81 -9 -100 -47 -100 -21 0 -23 -5 -23 -45 l0 -45 50 0 c62 0 101 19
120 57 8 16 16 79 19 148 l6 120 40 3 c60 5 65 -8 65 -175 l0 -143 61 0 61 0
-3 159 c-4 142 -6 163 -25 188 -39 53 -75 63 -226 63 l-138 0 0 -45z"/>
<path d="M2030 21995 c0 -43 1 -45 29 -45 29 0 29 -1 20 -32 -5 -18 -9 -67 -9
-108 0 -81 -9 -100 -47 -100 -21 0 -23 -5 -23 -45 l0 -45 50 0 c62 0 101 19
120 57 8 16 16 79 19 148 l6 120 40 3 c60 5 65 -8 65 -175 l0 -143 61 0 61 0
-3 159 c-4 142 -6 163 -25 188 -39 53 -75 63 -226 63 l-138 0 0 -45z"/>
<path d="M2480 21995 c0 -38 3 -45 20 -45 19 0 20 -7 20 -160 l0 -160 60 0 60
0 0 205 0 205 -80 0 -80 0 0 -45z"/>
<path d="M2710 21995 c0 -38 3 -45 20 -45 19 0 20 -7 20 -160 l0 -160 60 0 60
0 0 205 0 205 -80 0 -80 0 0 -45z"/>
<path d="M2930 22035 c0 -3 47 -73 105 -157 l105 -153 -90 -3 -90 -3 0 -44 0
-45 170 0 c169 0 170 0 170 22 0 13 -21 54 -47 91 l-48 69 58 108 c31 59 57
111 57 114 0 3 -28 6 -63 6 l-63 0 -30 -62 -31 -61 -37 61 -37 62 -65 0 c-35
0 -64 -2 -64 -5z"/>
<path d="M1620 20833 c-59 -10 -91 -25 -86 -40 4 -8 9 -26 12 -40 5 -20 11
-23 30 -19 27 7 29 3 14 -24 -7 -14 -39 -240 -40 -282 0 -5 26 -8 58 -8 l58 0
13 130 c16 172 26 199 78 200 40 0 53 -35 53 -142 l0 -98 -35 0 c-35 0 -35 0
-35 -45 l0 -45 96 0 96 0 -4 153 c-4 178 -14 207 -88 245 -35 17 -59 22 -120
21 -41 -1 -86 -4 -100 -6z"/>
<path d="M460 20785 l0 -45 103 0 c67 0 107 -4 115 -12 8 -8 12 -58 12 -160
l0 -148 60 0 60 0 0 151 c0 176 -10 208 -71 239 -32 17 -59 20 -159 20 l-120
0 0 -45z"/>
<path d="M860 20785 c0 -45 0 -45 35 -45 l35 0 0 -75 0 -75 60 0 60 0 0 120 0
120 -95 0 -95 0 0 -45z"/>
<path d="M1120 20785 l0 -45 85 0 85 0 0 -160 0 -160 60 0 60 0 0 160 0 160
35 0 c35 0 35 0 35 45 l0 45 -180 0 -180 0 0 -45z"/>
<path d="M2270 20785 c0 -38 3 -45 20 -45 19 0 20 -7 20 -160 l0 -160 60 0 60
0 0 205 0 205 -80 0 -80 0 0 -45z"/>
<path d="M2490 20785 c0 -45 0 -45 35 -45 l35 0 0 -75 0 -75 60 0 60 0 0 120
0 120 -95 0 -95 0 0 -45z"/>
<path d="M2760 20785 c0 -45 0 -45 35 -45 l36 0 -3 -117 -3 -118 -42 -3 -43
-3 0 -45 0 -44 59 0 c77 0 106 12 131 52 18 30 20 51 20 201 l0 167 -95 0 -95
0 0 -45z"/>
<path d="M3210 20785 c0 -43 1 -45 29 -45 29 0 29 -1 20 -32 -5 -18 -9 -67 -9
-108 0 -81 -9 -100 -47 -100 -21 0 -23 -5 -23 -45 l0 -45 50 0 c62 0 101 19
120 57 8 16 16 79 19 148 l6 120 40 3 c60 5 65 -8 65 -175 l0 -143 61 0 61 0
-3 159 c-4 142 -6 163 -25 188 -39 53 -75 63 -226 63 l-138 0 0 -45z"/>
<path d="M3660 20785 c0 -38 3 -45 20 -45 19 0 20 -7 20 -160 l0 -160 60 0 60
0 0 205 0 205 -80 0 -80 0 0 -45z"/>
<path d="M3890 20785 c0 -38 3 -45 20 -45 19 0 20 -7 20 -160 l0 -160 60 0 60
0 0 205 0 205 -80 0 -80 0 0 -45z"/>
<path d="M4110 20825 c0 -3 47 -73 105 -157 l105 -153 -90 -3 -90 -3 0 -44 0
-45 170 0 c169 0 170 0 170 22 0 13 -21 54 -47 91 l-48 69 58 108 c31 59 57
111 57 114 0 3 -28 6 -63 6 l-63 0 -30 -62 -31 -61 -37 61 -37 62 -65 0 c-35
0 -64 -2 -64 -5z"/>
<path d="M2010 20635 l0 -45 100 0 100 0 0 45 0 45 -100 0 -100 0 0 -45z"/>
<path d="M465 20633 c-4 -10 -10 -62 -13 -115 l-5 -98 62 0 61 0 0 115 0 115
-49 0 c-37 0 -51 -4 -56 -17z"/>
<path d="M31172 20372 l-70 -77 70 -85 c108 -132 404 -529 513 -688 54 -79
102 -141 109 -138 6 2 49 21 96 42 47 20 87 38 89 40 21 18 -695 984 -729 984
-4 0 -39 -35 -78 -78z"/>
<path d="M460 19415 l0 -205 180 0 180 0 0 205 0 205 -180 0 -180 0 0 -205z
m250 0 l0 -115 -65 0 -65 0 0 115 0 115 65 0 65 0 0 -115z"/>
<path d="M880 19575 c0 -45 0 -45 35 -45 l35 0 0 -75 0 -75 60 0 60 0 0 120 0
120 -95 0 -95 0 0 -45z"/>
<path d="M1160 19575 c0 -45 0 -45 35 -45 l36 0 -3 -117 -3 -118 -42 -3 -43
-3 0 -45 0 -44 59 0 c77 0 106 12 131 52 18 30 20 51 20 201 l0 167 -95 0 -95
0 0 -45z"/>
<path d="M1430 19575 l0 -45 95 0 95 0 0 -98 c0 -92 -2 -100 -25 -122 -22 -20
-31 -22 -94 -18 l-69 5 -6 -40 c-4 -22 -4 -42 -1 -45 3 -3 45 -8 93 -10 76 -3
93 0 132 20 74 38 84 67 88 246 l4 152 -156 0 -156 0 0 -45z"/>
<path d="M1820 19575 c0 -43 1 -45 29 -45 29 0 29 -1 20 -32 -5 -18 -9 -67 -9
-108 0 -81 -9 -100 -47 -100 -21 0 -23 -5 -23 -45 l0 -45 50 0 c62 0 101 19
120 57 8 16 16 79 19 148 l6 120 40 3 c60 5 65 -8 65 -175 l0 -143 61 0 61 0
-3 159 c-4 142 -6 163 -25 188 -39 53 -75 63 -226 63 l-138 0 0 -45z"/>
<path d="M2460 19575 c0 -43 1 -45 29 -45 29 0 29 -1 20 -32 -5 -18 -9 -67 -9
-108 0 -81 -9 -100 -47 -100 -21 0 -23 -5 -23 -45 l0 -45 50 0 c62 0 101 19
120 57 8 16 16 79 19 148 l6 120 40 3 c60 5 65 -8 65 -175 l0 -143 61 0 61 0
-3 159 c-4 142 -6 163 -25 188 -39 53 -75 63 -226 63 l-138 0 0 -45z"/>
<path d="M2930 19575 l0 -45 120 0 120 0 0 -89 c0 -74 -3 -92 -21 -115 -12
-15 -30 -26 -45 -26 -22 0 -24 -4 -24 -45 l0 -45 38 0 c60 0 123 38 150 90 20
40 22 59 22 182 l0 138 -180 0 -180 0 0 -45z"/>
<path d="M3390 19575 c0 -38 3 -45 20 -45 17 0 18 -3 10 -26 -6 -14 -10 -47
-10 -74 0 -60 14 -70 94 -70 l56 0 0 40 c0 33 -3 40 -20 40 -21 0 -26 23 -14
68 6 20 13 22 65 22 l59 0 0 -95 c0 -90 -2 -98 -26 -122 -24 -24 -30 -25 -97
-20 -40 2 -79 8 -88 11 -12 5 -18 -3 -26 -38 l-10 -45 49 -10 c117 -26 221 -8
268 45 41 47 50 91 50 237 l0 127 -190 0 -190 0 0 -45z"/>
<path d="M3870 19575 l0 -45 103 0 c67 0 107 -4 115 -12 8 -8 12 -58 12 -160
l0 -148 60 0 60 0 0 151 c0 176 -10 208 -71 239 -32 17 -59 20 -159 20 l-120
0 0 -45z"/>
<path d="M4460 19575 c0 -43 1 -45 29 -45 29 0 29 -1 20 -32 -5 -18 -9 -67 -9
-108 0 -81 -9 -100 -47 -100 -21 0 -23 -5 -23 -45 l0 -45 50 0 c62 0 101 19
120 57 8 16 16 79 19 148 l6 120 40 3 c60 5 65 -8 65 -175 l0 -143 61 0 61 0
-3 159 c-4 142 -6 163 -25 188 -39 53 -75 63 -226 63 l-138 0 0 -45z"/>
<path d="M4910 19575 c0 -38 3 -45 20 -45 19 0 20 -7 20 -160 l0 -160 60 0 60
0 0 205 0 205 -80 0 -80 0 0 -45z"/>
<path d="M5140 19575 c0 -38 3 -45 20 -45 19 0 20 -7 20 -160 l0 -160 60 0 60
0 0 205 0 205 -80 0 -80 0 0 -45z"/>
<path d="M5360 19615 c0 -3 47 -73 105 -157 l105 -153 -90 -3 -90 -3 0 -44 0
-45 170 0 c169 0 170 0 170 22 0 13 -21 54 -47 91 l-48 69 58 108 c31 59 57
111 57 114 0 3 -28 6 -63 6 l-63 0 -30 -62 -31 -61 -37 61 -37 62 -65 0 c-35
0 -64 -2 -64 -5z"/>
<path d="M2946 19434 c-3 -9 -6 -94 -6 -190 l0 -174 55 0 54 0 3 190 3 190
-51 0 c-38 0 -53 -4 -58 -16z"/>
<path d="M3875 19423 c-4 -10 -10 -62 -13 -115 l-5 -98 62 0 61 0 0 115 0 115
-49 0 c-37 0 -51 -4 -56 -17z"/>
<path d="M4121 18369 c-24 -5 -46 -11 -49 -13 -2 -3 0 -22 5 -43 7 -31 13 -37
30 -35 22 3 22 2 5 -30 -10 -21 -16 -57 -15 -100 1 -123 72 -198 187 -198 67
0 124 26 156 70 32 45 46 141 31 212 -23 109 -82 148 -221 147 -47 -1 -105 -5
-129 -10z m199 -89 c60 -32 50 -220 -14 -236 -57 -14 -96 32 -96 113 0 105 47
157 110 123z"/>
<path d="M5400 18373 c-59 -10 -91 -25 -86 -40 4 -8 9 -26 12 -40 5 -20 11
-23 30 -19 27 7 29 3 14 -24 -7 -14 -39 -240 -40 -282 0 -5 26 -8 58 -8 l58 0
13 130 c16 172 26 199 78 200 40 0 53 -35 53 -142 l0 -98 -35 0 c-35 0 -35 0
-35 -45 l0 -45 96 0 96 0 -4 153 c-4 178 -14 207 -88 245 -35 17 -59 22 -120
21 -41 -1 -86 -4 -100 -6z"/>
<path d="M2590 18165 l0 -205 180 0 180 0 0 205 0 205 -180 0 -180 0 0 -205z
m250 0 l0 -115 -65 0 -65 0 0 115 0 115 65 0 65 0 0 -115z"/>
<path d="M3010 18325 c0 -45 0 -45 35 -45 l35 0 0 -75 0 -75 60 0 60 0 0 120
0 120 -95 0 -95 0 0 -45z"/>
<path d="M3260 18325 l0 -45 78 0 c47 0 83 -5 90 -12 8 -8 12 -58 12 -160 l0
-148 60 0 60 0 0 153 c0 125 -3 158 -18 186 -27 55 -70 71 -184 71 l-98 0 0
-45z"/>
<path d="M3652 18218 c3 -140 5 -156 27 -191 35 -56 89 -80 172 -75 73 4 104
20 143 72 19 24 21 42 21 158 l0 130 -34 30 c-31 28 -38 30 -97 26 -35 -2 -66
-7 -70 -10 -3 -4 -3 -23 0 -42 6 -32 10 -35 44 -38 l37 -3 3 -99 c2 -81 0
-102 -14 -117 -22 -25 -69 -24 -94 1 -18 18 -20 33 -20 165 l0 145 -61 0 -61
0 4 -152z"/>
<path d="M4550 18325 c0 -45 0 -45 35 -45 l36 0 -3 -117 -3 -118 -42 -3 -43
-3 0 -45 0 -44 59 0 c77 0 106 12 131 52 18 30 20 51 20 201 l0 167 -95 0 -95
0 0 -45z"/>
<path d="M4800 18325 c0 -45 0 -45 35 -45 l35 0 0 -75 0 -75 60 0 60 0 0 120
0 120 -95 0 -95 0 0 -45z"/>
<path d="M5050 18325 c0 -45 0 -45 35 -45 l35 0 0 -75 0 -75 60 0 60 0 0 120
0 120 -95 0 -95 0 0 -45z"/>
<path d="M5960 18325 c0 -43 1 -45 29 -45 29 0 29 -1 20 -32 -5 -18 -9 -67 -9
-108 0 -81 -9 -100 -47 -100 -21 0 -23 -5 -23 -45 l0 -45 50 0 c62 0 101 19
120 57 8 16 16 79 19 148 l6 120 40 3 c60 5 65 -8 65 -175 l0 -143 61 0 61 0
-3 159 c-4 142 -6 163 -25 188 -39 53 -75 63 -226 63 l-138 0 0 -45z"/>
<path d="M6400 18325 c0 -38 3 -45 20 -45 19 0 20 -7 20 -160 l0 -160 60 0 60
0 0 205 0 205 -80 0 -80 0 0 -45z"/>
<path d="M6630 18325 c0 -38 3 -45 20 -45 19 0 20 -7 20 -160 l0 -160 60 0 60
0 0 205 0 205 -80 0 -80 0 0 -45z"/>
<path d="M6850 18365 c0 -3 47 -73 105 -157 l105 -153 -90 -3 -90 -3 0 -44 0
-45 170 0 c169 0 170 0 170 22 0 13 -21 54 -47 91 l-48 69 58 108 c31 59 57
111 57 114 0 3 -28 6 -63 6 l-63 0 -30 -62 -31 -61 -37 61 -37 62 -65 0 c-35
0 -64 -2 -64 -5z"/>
<path d="M11450 18070 l0 -50 36 0 c31 0 35 -3 29 -17 -4 -10 -11 -70 -14
-134 -7 -128 -16 -149 -63 -149 -29 0 -29 -1 -26 -47 l3 -48 55 -3 c41 -2 63
3 87 17 55 35 66 69 72 231 l6 145 46 3 c77 5 79 0 79 -209 l0 -179 70 0 70 0
0 158 c-1 180 -10 235 -48 276 -46 49 -77 56 -247 56 l-155 0 0 -50z"/>
<path d="M12089 17928 l130 -193 -110 -3 -109 -3 0 -49 0 -50 195 0 195 0 0
28 c0 18 -20 57 -54 107 l-55 78 70 138 69 139 -73 0 -72 0 -36 -80 -36 -81
-48 81 -49 80 -73 0 -74 0 130 -192z"/>
<path d="M12470 18070 c0 -43 3 -50 20 -50 19 0 20 -7 20 -195 l0 -195 65 0
65 0 0 245 0 245 -85 0 -85 0 0 -50z"/>
<path d="M12760 18070 l0 -50 78 0 c120 0 122 -2 122 -161 l0 -129 -115 0
-115 0 0 -50 0 -50 210 0 210 0 0 50 c0 47 -2 50 -25 50 l-25 0 0 108 c-1 170
-19 218 -100 260 -37 18 -60 22 -142 22 l-98 0 0 -50z"/>
<path d="M13220 18070 l0 -50 145 0 145 0 0 -99 c0 -54 -5 -112 -11 -130 -11
-31 -52 -61 -84 -61 -11 0 -15 -12 -15 -50 0 -48 1 -50 28 -50 73 0 148 43
184 105 21 37 23 54 26 213 l4 172 -211 0 -211 0 0 -50z"/>
<path d="M13241 17869 c-6 -19 -11 -109 -11 -220 l0 -189 65 0 65 0 0 220 0
220 -54 0 c-52 0 -55 -1 -65 -31z"/>
<path d="M31900 17560 l0 -50 36 0 c31 0 35 -3 28 -17 -4 -10 -10 -70 -13
-134 -7 -128 -15 -149 -63 -149 -29 0 -29 -1 -26 -47 l3 -48 55 -3 c41 -2 63
3 87 17 55 34 67 71 71 211 4 172 3 170 56 170 73 0 76 -9 76 -213 l0 -177 70
0 70 0 0 155 c0 178 -10 240 -47 279 -45 49 -78 56 -248 56 l-155 0 0 -50z"/>
<path d="M32540 17415 l130 -195 -110 0 -110 0 0 -50 0 -50 195 0 195 0 0 28
c0 16 -21 59 -54 107 l-53 80 68 138 69 137 -72 0 -73 0 -34 -75 c-18 -41 -37
-72 -42 -69 -5 3 -27 36 -50 74 l-41 70 -74 0 -74 0 130 -195z"/>
<path d="M32920 17560 c0 -43 3 -50 20 -50 19 0 20 -7 20 -195 l0 -195 65 0
65 0 0 245 0 245 -85 0 -85 0 0 -50z"/>
<path d="M33210 17560 l0 -50 78 0 c120 0 122 -2 122 -161 l0 -129 -115 0
-115 0 0 -50 0 -50 210 0 210 0 0 50 c0 47 -2 50 -25 50 l-25 0 0 113 c0 131
-10 175 -51 222 -38 43 -80 55 -196 55 l-93 0 0 -50z"/>
<path d="M33670 17560 l0 -50 145 0 145 0 0 -101 c0 -70 -5 -111 -15 -134 -15
-31 -50 -55 -80 -55 -11 0 -15 -13 -15 -50 l0 -50 39 0 c23 0 60 11 92 28 43
22 59 38 81 81 27 52 28 57 28 217 l0 164 -210 0 -210 0 0 -50z"/>
<path d="M33692 17365 c-8 -17 -12 -94 -12 -220 l0 -195 65 0 65 0 0 220 0
220 -53 0 c-48 0 -55 -3 -65 -25z"/>
<path d="M11090 17070 l0 -50 36 0 c31 0 35 -3 29 -17 -4 -10 -11 -70 -14
-134 -7 -128 -16 -149 -63 -149 -29 0 -29 -1 -26 -47 l3 -48 55 -3 c41 -2 63
3 87 17 55 35 66 69 72 231 l6 145 46 3 c77 5 79 0 79 -209 l0 -179 70 0 70 0
0 158 c-1 180 -10 235 -48 276 -46 49 -77 56 -247 56 l-155 0 0 -50z"/>
<path d="M11600 17070 l0 -50 88 0 c136 0 132 7 132 -211 l0 -179 66 0 65 0
-3 194 c-3 222 -7 232 -88 274 -38 19 -60 22 -152 22 l-108 0 0 -50z"/>
<path d="M12030 17070 c0 -43 3 -50 20 -50 19 0 20 -7 20 -195 l0 -195 65 0
65 0 0 245 0 245 -85 0 -85 0 0 -50z"/>
<path d="M12330 16905 c0 -250 -9 -231 125 -265 196 -50 375 -6 443 109 26 44
27 53 31 209 l3 162 -66 0 -66 0 0 -149 c0 -137 -2 -150 -23 -182 -42 -63
-162 -84 -279 -49 l-38 11 0 184 0 185 -65 0 -65 0 0 -215z"/>
<path d="M12560 16971 c0 -82 -3 -157 -6 -166 -6 -14 1 -16 52 -13 58 3 59 4
71 38 7 19 12 92 12 163 l1 127 -65 0 -65 0 0 -149z"/>
<path d="M13050 17070 l0 -50 145 0 145 0 0 -99 c0 -54 -5 -112 -11 -130 -11
-31 -52 -61 -84 -61 -11 0 -15 -12 -15 -50 0 -48 1 -50 28 -50 73 0 148 43
184 105 21 37 23 54 26 213 l4 172 -211 0 -211 0 0 -50z"/>
<path d="M13580 17070 l0 -50 36 0 c31 0 35 -3 29 -17 -4 -10 -11 -70 -14
-134 -7 -128 -16 -149 -63 -149 -29 0 -29 -1 -26 -47 l3 -48 55 -3 c41 -2 63
3 87 17 55 35 66 69 72 231 l6 145 46 3 c77 5 79 0 79 -209 l0 -179 70 0 70 0
0 158 c-1 180 -10 235 -48 276 -46 49 -77 56 -247 56 l-155 0 0 -50z"/>
<path d="M13071 16869 c-6 -19 -11 -109 -11 -220 l0 -189 65 0 65 0 0 220 0
220 -54 0 c-52 0 -55 -1 -65 -31z"/>
<path d="M32000 16365 l0 -245 210 0 210 0 0 245 0 245 -210 0 -210 0 0 -245z
m290 0 l0 -145 -75 0 -75 0 0 145 0 145 75 0 75 0 0 -145z"/>
<path d="M32520 16560 c0 -43 3 -50 20 -50 19 0 20 -7 20 -195 l0 -195 65 0
65 0 0 245 0 245 -85 0 -85 0 0 -50z"/>
<path d="M32820 16560 l0 -50 50 0 50 0 0 -110 c0 -106 -1 -111 -27 -140 -22
-24 -39 -32 -81 -37 l-53 -6 3 -51 3 -51 47 1 c52 0 84 22 119 79 11 17 19 23
19 15 0 -8 5 -32 11 -52 l10 -38 59 0 c33 0 60 3 60 8 0 4 -9 53 -20 110 -14
71 -20 144 -20 237 l0 135 -115 0 -115 0 0 -50z"/>
<path d="M33140 16560 l0 -50 90 0 c133 0 130 4 130 -215 l0 -175 66 0 65 0
-3 194 c-3 219 -6 229 -84 273 -34 20 -54 23 -151 23 l-113 0 0 -50z"/>
<path d="M33580 16560 l0 -50 36 0 c31 0 35 -3 28 -17 -4 -10 -10 -70 -13
-134 -7 -128 -15 -149 -63 -149 -29 0 -29 -1 -26 -47 l3 -48 55 -3 c41 -2 63
3 87 17 55 34 67 71 71 211 4 172 3 170 56 170 73 0 76 -9 76 -213 l0 -177 70
0 70 0 0 155 c0 178 -10 240 -47 279 -45 49 -78 56 -248 56 l-155 0 0 -50z"/>
<path d="M12290 16113 c-36 -8 -66 -16 -67 -17 -1 -1 4 -22 11 -46 14 -45 19
-48 64 -34 l23 7 -21 -36 c-15 -24 -25 -71 -35 -158 -8 -68 -17 -141 -20 -161
l-5 -38 64 0 64 0 6 38 c3 20 11 93 17 162 12 138 29 187 66 196 33 9 71 -10
83 -42 6 -14 10 -77 10 -140 l0 -114 -45 0 -45 0 0 -50 0 -50 110 0 110 0 0
163 c0 89 -5 180 -11 202 -6 22 -28 56 -48 76 -20 20 -54 42 -76 48 -55 15
-177 12 -255 -6z"/>
<path d="M10960 16070 l0 -50 115 0 c110 0 117 -1 140 -25 25 -24 25 -27 25
-195 l0 -170 65 0 65 0 0 168 c0 92 -5 183 -10 202 -11 41 -61 94 -103 109
-16 6 -89 11 -163 11 l-134 0 0 -50z"/>
<path d="M11440 16070 l0 -50 40 0 40 0 0 -90 0 -90 65 0 65 0 0 140 0 140
-105 0 -105 0 0 -50z"/>
<path d="M11730 16070 l0 -50 105 0 105 0 0 -195 0 -195 65 0 65 0 0 195 0
195 45 0 45 0 0 50 0 50 -215 0 -215 0 0 -50z"/>
<path d="M13100 16070 c0 -43 3 -50 20 -50 19 0 20 -7 20 -195 l0 -195 65 0
65 0 0 245 0 245 -85 0 -85 0 0 -50z"/>
<path d="M13360 16070 l0 -50 40 0 40 0 0 -90 0 -90 65 0 65 0 0 140 0 140
-105 0 -105 0 0 -50z"/>
<path d="M13670 16070 l0 -50 45 0 45 0 0 -128 c0 -155 -8 -172 -76 -172 l-44
0 0 -44 c0 -51 7 -56 88 -56 64 0 110 22 139 67 16 23 18 55 21 230 l3 203
-110 0 -111 0 0 -50z"/>
<path d="M13990 16070 c0 -43 3 -50 20 -50 19 0 20 -7 20 -195 l0 -195 65 0
65 0 0 245 0 245 -85 0 -85 0 0 -50z"/>
<path d="M20470 15730 l0 -300 324 -2 325 -3 -190 -460 c-104 -253 -192 -470
-195 -482 l-6 -23 173 0 174 0 203 513 203 512 -1 103 0 102 -340 0 -340 0 0
170 0 170 -165 0 -165 0 0 -300z"/>
<path d="M12780 15890 l0 -50 115 0 115 0 0 50 0 50 -115 0 -115 0 0 -50z"/>
<path d="M10970 15874 c-6 -14 -10 -75 -10 -135 l0 -109 60 0 60 0 0 113 c0
61 3 122 6 135 6 21 4 22 -50 22 -51 0 -57 -2 -66 -26z"/>
<path d="M24306 15709 c-113 -11 -263 -40 -360 -69 -36 -12 -66 -22 -66 -23 0
-1 15 -54 34 -117 38 -131 29 -125 145 -92 l74 22 -20 -23 c-73 -83 -89 -146
-133 -536 -22 -190 -42 -361 -45 -378 l-6 -33 166 0 c125 0 165 3 165 13 0 6
18 185 39 397 43 422 53 469 115 529 65 63 161 60 226 -8 55 -57 60 -91 67
-401 l6 -280 -111 0 -112 0 0 -125 0 -125 276 0 276 0 -5 408 c-5 446 -9 476
-68 593 -99 197 -322 280 -663 248z"/>
<path d="M21690 15555 l0 -125 135 0 135 0 0 -242 c0 -272 -3 -287 -78 -363
-57 -58 -111 -78 -225 -83 l-98 -4 3 -147 3 -146 53 -3 c161 -9 318 96 372
250 21 61 15 74 60 -117 l26 -110 152 -3 c84 -1 152 1 152 6 0 4 -21 109 -47
233 l-47 224 -4 378 -3 377 -295 0 -294 0 0 -125z"/>
<path d="M22580 15677 c0 -11 192 -847 201 -874 5 -17 23 -50 40 -72 17 -25
24 -41 16 -41 -18 0 -155 38 -201 56 -21 8 -40 14 -41 12 -6 -6 -65 -217 -65
-231 0 -17 46 -34 180 -68 62 -15 130 -22 250 -26 146 -5 176 -3 247 15 115
29 188 68 259 137 66 66 114 152 133 243 7 34 11 199 11 452 l0 400 -165 0
-165 0 0 -391 c0 -281 -3 -403 -12 -433 -14 -45 -103 -146 -130 -146 -22 0
-35 53 -138 547 l-86 418 -167 3 c-92 1 -167 1 -167 -1z"/>
<path d="M40780 15095 l0 -105 109 0 109 0 -59 -140 c-32 -77 -63 -149 -69
-160 -11 -20 -9 -21 55 -18 l67 3 69 170 c37 94 68 185 69 203 l0 32 -115 0
-115 0 0 60 0 60 -60 0 -60 0 0 -105z"/>
<path d="M44050 15083 c-59 -10 -91 -25 -86 -40 4 -8 9 -26 12 -40 5 -20 11
-23 30 -19 27 7 29 3 14 -24 -7 -14 -39 -240 -40 -282 0 -5 26 -8 58 -8 l58 0
13 130 c16 172 26 199 78 200 40 0 53 -35 53 -142 l0 -98 -35 0 c-35 0 -35 0
-35 -45 l0 -45 96 0 96 0 -4 153 c-4 178 -14 207 -88 245 -35 17 -59 22 -120
21 -41 -1 -86 -4 -100 -6z"/>
<path d="M40110 15035 c0 -43 1 -45 29 -45 29 0 29 -1 20 -32 -5 -18 -9 -67
-9 -108 0 -81 -9 -100 -47 -100 -21 0 -23 -5 -23 -45 l0 -45 50 0 c62 0 101
19 120 57 8 16 16 79 19 148 l6 120 40 3 c60 5 65 -8 65 -175 l0 -143 61 0 61
0 -3 159 c-4 142 -6 163 -25 188 -39 53 -75 63 -226 63 l-138 0 0 -45z"/>
<path d="M40560 15035 c0 -38 3 -45 20 -45 19 0 20 -7 20 -160 l0 -160 60 0
60 0 0 205 0 205 -80 0 -80 0 0 -45z"/>
<path d="M41170 15035 c0 -38 3 -45 20 -45 19 0 20 -7 20 -160 l0 -160 60 0
60 0 0 205 0 205 -80 0 -80 0 0 -45z"/>
<path d="M41446 14938 c19 -79 38 -153 44 -165 11 -26 4 -28 -36 -13 -33 13
-40 6 -49 -41 l-7 -37 52 -11 c147 -32 256 -3 298 79 20 40 22 59 22 187 l0
143 -60 0 -60 0 0 -143 c0 -131 -2 -145 -20 -162 -11 -10 -22 -16 -25 -13 -3
3 -20 75 -38 159 l-33 154 -60 3 -61 3 33 -143z"/>
<path d="M41860 15035 c0 -38 3 -45 20 -45 17 0 18 -3 10 -26 -6 -14 -10 -47
-10 -74 0 -60 14 -70 94 -70 l56 0 0 40 c0 33 -3 40 -20 40 -21 0 -26 23 -14
68 6 20 13 22 65 22 l59 0 0 -95 c0 -90 -2 -98 -26 -122 -24 -24 -30 -25 -97
-20 -40 2 -79 8 -88 11 -12 5 -18 -3 -26 -38 l-10 -45 49 -10 c117 -26 221 -8
268 45 41 47 50 91 50 237 l0 127 -190 0 -190 0 0 -45z"/>
<path d="M42330 15035 l0 -45 73 0 c43 0 78 -5 85 -12 8 -8 12 -48 12 -115 l0
-103 -100 0 -100 0 0 -45 0 -45 185 0 185 0 0 40 c0 34 -4 41 -25 46 -25 6
-25 8 -25 111 0 176 -35 213 -200 213 l-90 0 0 -45z"/>
<path d="M42900 15035 l0 -45 103 0 c67 0 107 -4 115 -12 8 -8 12 -58 12 -160
l0 -148 60 0 60 0 0 151 c0 176 -10 208 -71 239 -32 17 -59 20 -159 20 l-120
0 0 -45z"/>
<path d="M43330 15035 l0 -45 95 0 95 0 0 -98 c0 -92 -2 -100 -25 -122 -22
-20 -31 -22 -94 -18 l-69 5 -6 -40 c-4 -22 -4 -42 -1 -45 3 -3 45 -8 93 -10
76 -3 93 0 132 20 74 38 84 67 88 246 l4 152 -156 0 -156 0 0 -45z"/>
<path d="M43700 15035 c0 -45 0 -45 35 -45 l35 0 0 -75 0 -75 60 0 60 0 0 120
0 120 -95 0 -95 0 0 -45z"/>
<path d="M44430 15035 c0 -43 1 -45 29 -45 29 0 29 -1 20 -32 -5 -18 -9 -67
-9 -108 0 -81 -9 -100 -47 -100 -21 0 -23 -5 -23 -45 l0 -45 50 0 c62 0 101
19 120 57 8 16 16 79 19 148 l6 120 40 3 c60 5 65 -8 65 -175 l0 -143 61 0 61
0 -3 159 c-4 142 -6 163 -25 188 -39 53 -75 63 -226 63 l-138 0 0 -45z"/>
<path d="M45070 15035 c0 -43 1 -45 29 -45 29 0 29 -1 20 -32 -5 -18 -9 -67
-9 -108 0 -81 -9 -100 -47 -100 -21 0 -23 -5 -23 -45 l0 -45 50 0 c62 0 101
19 120 57 8 16 16 79 19 148 l6 120 40 3 c60 5 65 -8 65 -175 l0 -143 61 0 61
0 -3 159 c-4 142 -6 163 -25 188 -39 53 -75 63 -226 63 l-138 0 0 -45z"/>
<path d="M45510 15035 c0 -38 3 -45 20 -45 19 0 20 -7 20 -160 l0 -160 60 0
60 0 0 205 0 205 -80 0 -80 0 0 -45z"/>
<path d="M45740 15035 c0 -38 3 -45 20 -45 19 0 20 -7 20 -160 l0 -160 60 0
60 0 0 205 0 205 -80 0 -80 0 0 -45z"/>
<path d="M45960 15075 c0 -3 47 -73 105 -157 l105 -153 -90 -3 -90 -3 0 -44 0
-45 170 0 c169 0 170 0 170 22 0 13 -21 54 -47 91 l-48 69 58 108 c31 59 57
111 57 114 0 3 -28 6 -63 6 l-63 0 -30 -62 -31 -61 -37 61 -37 62 -65 0 c-35
0 -64 -2 -64 -5z"/>
<path d="M42905 14883 c-4 -10 -10 -62 -13 -115 l-5 -98 62 0 61 0 0 115 0
115 -49 0 c-37 0 -51 -4 -56 -17z"/>
<path d="M33728 14175 c-3 -3 -43 -14 -89 -24 -69 -15 -84 -21 -82 -36 11
-129 23 -713 17 -906 l-7 -246 104 -26 c57 -14 106 -23 109 -21 8 9 6 958 -4
1117 -7 129 -10 147 -25 147 -10 0 -20 -2 -23 -5z"/>
<path d="M11805 14094 c-19 -194 -22 -1170 -5 -1188 3 -3 39 3 80 13 41 11 87
22 101 25 l26 6 -5 317 c-2 179 0 434 7 582 7 145 10 265 8 268 -3 2 -42 13
-88 24 -46 11 -91 22 -101 25 -14 4 -17 -7 -23 -72z"/>
<path d="M40730 13743 c-59 -10 -91 -25 -86 -40 4 -8 9 -26 12 -40 5 -20 11
-23 30 -19 27 7 29 3 14 -24 -7 -14 -39 -240 -40 -282 0 -5 26 -8 58 -8 l58 0
13 130 c16 172 26 199 78 200 40 0 53 -35 53 -142 l0 -98 -35 0 c-35 0 -35 0
-35 -45 l0 -45 96 0 96 0 -4 153 c-4 178 -14 207 -88 245 -35 17 -59 22 -120
21 -41 -1 -86 -4 -100 -6z"/>
<path d="M42840 13743 c-59 -10 -91 -25 -86 -40 4 -8 9 -26 12 -40 5 -20 11
-23 30 -19 27 7 29 3 14 -24 -7 -14 -39 -240 -40 -282 0 -5 26 -8 58 -8 l58 0
13 130 c16 172 26 199 78 200 40 0 53 -35 53 -142 l0 -98 -35 0 c-35 0 -35 0
-35 -45 l0 -45 96 0 96 0 -4 153 c-4 178 -14 207 -88 245 -35 17 -59 22 -120
21 -41 -1 -86 -4 -100 -6z"/>
<path d="M38970 13695 c0 -43 1 -45 29 -45 29 0 29 -1 20 -32 -5 -18 -9 -67
-9 -108 0 -81 -9 -100 -47 -100 -21 0 -23 -5 -23 -45 l0 -45 50 0 c62 0 101
19 120 57 8 16 16 79 19 148 l6 120 40 3 c60 5 65 -8 65 -175 l0 -143 61 0 61
0 -3 159 c-4 142 -6 163 -25 188 -39 53 -75 63 -226 63 l-138 0 0 -45z"/>
<path d="M39420 13695 c0 -38 3 -45 20 -45 19 0 20 -7 20 -160 l0 -160 60 0
60 0 0 205 0 205 -80 0 -80 0 0 -45z"/>
<path d="M39640 13695 l0 -45 85 0 85 0 0 -160 0 -160 60 0 60 0 0 160 0 160
35 0 c35 0 35 0 35 45 l0 45 -180 0 -180 0 0 -45z"/>
<path d="M40040 13695 l0 -45 78 0 c47 0 83 -5 90 -12 8 -8 12 -58 12 -160 l0
-148 60 0 60 0 0 153 c0 125 -3 158 -18 186 -27 55 -70 71 -184 71 l-98 0 0
-45z"/>
<path d="M40400 13695 c0 -38 3 -45 20 -45 19 0 20 -7 20 -160 l0 -160 60 0
60 0 0 205 0 205 -80 0 -80 0 0 -45z"/>
<path d="M41120 13695 l0 -45 73 0 c43 0 78 -5 85 -12 8 -8 12 -48 12 -115 l0
-103 -100 0 -100 0 0 -45 0 -45 185 0 185 0 0 40 c0 34 -4 41 -25 46 -25 6
-25 8 -25 111 0 176 -35 213 -200 213 l-90 0 0 -45z"/>
<path d="M41690 13695 l0 -45 103 0 c67 0 107 -4 115 -12 8 -8 12 -58 12 -160
l0 -148 60 0 60 0 0 151 c0 176 -10 208 -71 239 -32 17 -59 20 -159 20 l-120
0 0 -45z"/>
<path d="M42110 13695 l0 -45 95 0 95 0 0 -98 c0 -92 -2 -100 -25 -122 -22
-20 -31 -22 -94 -18 l-69 5 -6 -40 c-4 -22 -4 -42 -1 -45 3 -3 45 -8 93 -10
76 -3 93 0 132 20 74 38 84 67 88 246 l4 152 -156 0 -156 0 0 -45z"/>
<path d="M42480 13695 c0 -45 0 -45 35 -45 l35 0 0 -75 0 -75 60 0 60 0 0 120
0 120 -95 0 -95 0 0 -45z"/>
<path d="M43220 13695 c0 -43 1 -45 29 -45 29 0 29 -1 20 -32 -5 -18 -9 -67
-9 -108 0 -81 -9 -100 -47 -100 -21 0 -23 -5 -23 -45 l0 -45 50 0 c62 0 101
19 120 57 8 16 16 79 19 148 l6 120 40 3 c60 5 65 -8 65 -175 l0 -143 61 0 61
0 -3 159 c-4 142 -6 163 -25 188 -39 53 -75 63 -226 63 l-138 0 0 -45z"/>
<path d="M43850 13695 c0 -43 1 -45 29 -45 29 0 29 -1 20 -32 -5 -18 -9 -67
-9 -108 0 -81 -9 -100 -47 -100 -21 0 -23 -5 -23 -45 l0 -45 50 0 c62 0 101
19 120 57 8 16 16 79 19 148 l6 120 40 3 c60 5 65 -8 65 -175 l0 -143 61 0 61
0 -3 159 c-4 142 -6 163 -25 188 -39 53 -75 63 -226 63 l-138 0 0 -45z"/>
<path d="M44300 13695 c0 -38 3 -45 20 -45 19 0 20 -7 20 -160 l0 -160 60 0
60 0 0 205 0 205 -80 0 -80 0 0 -45z"/>
<path d="M44530 13695 c0 -38 3 -45 20 -45 19 0 20 -7 20 -160 l0 -160 60 0
60 0 0 205 0 205 -80 0 -80 0 0 -45z"/>
<path d="M44740 13735 c0 -3 47 -73 105 -157 l105 -153 -90 -3 -90 -3 0 -44 0
-45 170 0 c169 0 170 0 170 22 0 13 -21 54 -47 91 l-48 69 58 108 c31 59 57
111 57 114 0 3 -28 6 -63 6 l-63 0 -30 -62 -31 -61 -37 61 -37 62 -65 0 c-35
0 -64 -2 -64 -5z"/>
<path d="M41695 13543 c-4 -10 -10 -62 -13 -115 l-5 -98 62 0 61 0 0 115 0
115 -49 0 c-37 0 -51 -4 -56 -17z"/>
<path d="M20200 12570 l0 -610 525 0 525 0 0 610 0 610 -525 0 -525 0 0 -610z
m720 0 l0 -360 -195 0 -195 0 0 360 0 360 195 0 195 0 0 -360z"/>
<path d="M21480 13055 l0 -125 55 0 55 0 0 -485 0 -485 165 0 165 0 0 610 0
610 -220 0 -220 0 0 -125z"/>
<path d="M22315 12988 l133 -192 -41 -26 c-53 -35 -89 -74 -117 -127 -44 -86
-51 -135 -57 -415 l-6 -268 162 0 161 0 0 278 c0 254 7 343 28 356 4 2 106
-139 227 -314 l220 -319 188 0 189 -1 -34 48 c-107 150 -323 467 -321 471 1 3
66 128 143 276 78 149 159 305 181 348 l39 77 -186 0 -185 0 -96 -200 c-53
-110 -100 -200 -104 -200 -4 0 -69 90 -145 200 l-139 200 -187 0 -187 0 134
-192z"/>
<path d="M23530 13055 l0 -125 95 0 95 0 0 -225 0 -225 165 0 165 0 0 350 0
350 -260 0 -260 0 0 -125z"/>
<path d="M24290 13056 l0 -126 91 0 c83 0 90 -2 84 -17 -43 -104 -48 -137 -54
-378 -6 -254 -9 -266 -57 -304 -21 -16 -41 -21 -90 -21 l-64 0 0 -130 0 -129
35 -7 c19 -3 82 -5 139 -2 95 3 110 6 172 38 49 25 79 49 105 84 67 88 72 115
79 456 4 185 12 326 20 359 l12 53 102 -4 c120 -4 160 -22 191 -83 19 -38 20
-63 23 -462 l3 -423 166 0 165 0 -4 438 c-4 413 -6 441 -26 501 -41 126 -114
202 -241 253 -54 22 -68 23 -453 26 l-398 3 0 -125z"/>
<path d="M39750 12493 c-59 -10 -91 -25 -86 -40 4 -8 9 -26 12 -40 5 -20 11
-23 30 -19 27 7 29 3 14 -24 -7 -14 -39 -240 -40 -282 0 -5 26 -8 58 -8 l58 0
13 130 c16 172 26 199 78 200 40 0 53 -35 53 -142 l0 -98 -35 0 c-35 0 -35 0
-35 -45 l0 -45 96 0 96 0 -4 153 c-4 178 -14 207 -88 245 -35 17 -59 22 -120
21 -41 -1 -86 -4 -100 -6z"/>
<path d="M37910 12445 l0 -45 103 0 c67 0 107 -4 115 -12 8 -8 12 -58 12 -160
l0 -148 60 0 60 0 0 151 c0 176 -10 208 -71 239 -32 17 -59 20 -159 20 l-120
0 0 -45z"/>
<path d="M38340 12445 l0 -45 73 0 c43 0 78 -5 85 -12 8 -8 12 -48 12 -115 l0
-103 -100 0 -100 0 0 -45 0 -45 185 0 185 0 0 40 c0 34 -4 41 -25 46 -25 6
-25 8 -25 111 0 176 -35 213 -200 213 l-90 0 0 -45z"/>
<path d="M38700 12445 c0 -45 0 -45 35 -45 l35 0 0 -75 0 -75 60 0 60 0 0 120
0 120 -95 0 -95 0 0 -45z"/>
<path d="M38982 12338 c3 -140 5 -156 27 -191 35 -56 89 -80 172 -75 73 4 104
20 143 72 19 24 21 42 21 158 l0 130 -34 30 c-31 28 -38 30 -97 26 -35 -2 -66
-7 -70 -10 -3 -4 -3 -23 0 -42 6 -32 10 -35 44 -38 l37 -3 3 -99 c2 -81 0
-102 -14 -117 -22 -25 -69 -24 -94 1 -18 18 -20 33 -20 165 l0 145 -61 0 -61
0 4 -152z"/>
<path d="M39400 12445 c0 -45 0 -45 35 -45 l35 0 0 -75 0 -75 60 0 60 0 0 120
0 120 -95 0 -95 0 0 -45z"/>
<path d="M40310 12445 c0 -43 1 -45 29 -45 29 0 29 -1 20 -32 -5 -18 -9 -67
-9 -108 0 -81 -9 -100 -47 -100 -21 0 -23 -5 -23 -45 l0 -45 50 0 c62 0 101
19 120 57 8 16 16 79 19 148 l6 120 40 3 c60 5 65 -8 65 -175 l0 -143 61 0 61
0 -3 159 c-4 142 -6 163 -25 188 -39 53 -75 63 -226 63 l-138 0 0 -45z"/>
<path d="M40740 12445 l0 -45 78 0 c47 0 83 -5 90 -12 8 -8 12 -58 12 -160 l0
-148 60 0 60 0 0 153 c0 125 -3 158 -18 186 -27 55 -70 71 -184 71 l-98 0 0
-45z"/>
<path d="M41110 12445 c0 -38 3 -45 20 -45 19 0 20 -7 20 -160 l0 -160 60 0
60 0 0 205 0 205 -80 0 -80 0 0 -45z"/>
<path d="M41362 12303 l3 -186 55 -20 c43 -16 81 -21 175 -21 115 -1 122 0
173 28 36 20 62 44 78 71 22 39 24 52 24 178 l0 137 -55 0 -55 0 0 -117 c0
-128 -7 -153 -53 -187 -33 -25 -138 -34 -191 -16 l-36 12 0 154 0 154 -60 0
-60 0 2 -187z"/>
<path d="M41560 12382 c0 -59 -4 -122 -9 -140 l-10 -32 54 0 c51 0 54 1 64 31
6 18 11 81 11 140 l0 109 -55 0 -55 0 0 -108z"/>
<path d="M41980 12445 l0 -45 120 0 120 0 0 -89 c0 -74 -3 -92 -21 -115 -12
-15 -30 -26 -45 -26 -22 0 -24 -4 -24 -45 l0 -45 38 0 c60 0 123 38 150 90 20
40 22 59 22 182 l0 138 -180 0 -180 0 0 -45z"/>
<path d="M42420 12445 c0 -43 1 -45 29 -45 29 0 29 -1 20 -32 -5 -18 -9 -67
-9 -108 0 -81 -9 -100 -47 -100 -21 0 -23 -5 -23 -45 l0 -45 50 0 c62 0 101
19 120 57 8 16 16 79 19 148 l6 120 40 3 c60 5 65 -8 65 -175 l0 -143 61 0 61
0 -3 159 c-4 142 -6 163 -25 188 -39 53 -75 63 -226 63 l-138 0 0 -45z"/>
<path d="M43050 12445 c0 -43 1 -45 29 -45 29 0 29 -1 20 -32 -5 -18 -9 -67
-9 -108 0 -81 -9 -100 -47 -100 -21 0 -23 -5 -23 -45 l0 -45 50 0 c62 0 101
19 120 57 8 16 16 79 19 148 l6 120 40 3 c60 5 65 -8 65 -175 l0 -143 61 0 61
0 -3 159 c-4 142 -6 163 -25 188 -39 53 -75 63 -226 63 l-138 0 0 -45z"/>
<path d="M43500 12445 c0 -38 3 -45 20 -45 19 0 20 -7 20 -160 l0 -160 60 0
60 0 0 205 0 205 -80 0 -80 0 0 -45z"/>
<path d="M43730 12445 c0 -38 3 -45 20 -45 19 0 20 -7 20 -160 l0 -160 60 0
60 0 0 205 0 205 -80 0 -80 0 0 -45z"/>
<path d="M43950 12485 c0 -3 47 -73 105 -157 l105 -153 -90 -3 -90 -3 0 -44 0
-45 170 0 c169 0 170 0 170 22 0 13 -21 54 -47 91 l-48 69 58 108 c31 59 57
111 57 114 0 3 -28 6 -63 6 l-63 0 -30 -62 -31 -61 -37 61 -37 62 -65 0 c-35
0 -64 -2 -64 -5z"/>
<path d="M41996 12304 c-3 -9 -6 -94 -6 -190 l0 -174 55 0 54 0 3 190 3 190
-51 0 c-38 0 -53 -4 -58 -16z"/>
<path d="M37915 12293 c-4 -10 -10 -62 -13 -115 l-5 -98 62 0 61 0 0 115 0
115 -49 0 c-37 0 -51 -4 -56 -17z"/>
<path d="M31910 11470 l0 -50 36 0 c26 0 33 -3 27 -12 -4 -7 -10 -69 -13 -136
-5 -107 -8 -126 -25 -138 -10 -8 -29 -14 -42 -14 -21 0 -23 -4 -23 -50 l0 -50
56 0 c76 0 118 22 144 74 17 35 20 62 20 162 0 157 2 164 51 164 26 0 46 -7
59 -20 18 -18 20 -33 20 -195 l0 -175 71 0 71 0 -4 188 c-4 217 -11 241 -88
280 -40 20 -58 22 -202 22 l-158 0 0 -50z"/>
<path d="M32416 11508 c4 -7 61 -93 126 -190 65 -98 118 -180 118 -183 0 -3
-47 -5 -105 -5 l-105 0 0 -50 0 -50 195 0 195 0 0 30 c0 20 -17 56 -50 105
-27 41 -50 78 -50 83 0 5 31 68 69 140 l69 132 -78 0 -77 0 -35 -76 -35 -77
-45 74 -44 74 -78 3 c-61 2 -76 0 -70 -10z"/>
<path d="M32930 11470 c0 -43 3 -50 20 -50 19 0 20 -7 20 -195 l0 -195 70 0
70 0 0 245 0 245 -90 0 -90 0 0 -50z"/>
<path d="M33200 11471 l0 -49 91 -4 c119 -4 119 -4 119 -165 l0 -123 -115 0
-115 0 0 -50 0 -50 215 0 215 0 0 50 c0 49 -1 50 -30 50 l-30 0 0 128 c0 113
-3 133 -22 172 -36 70 -85 90 -220 90 l-108 0 0 -49z"/>
<path d="M33680 11470 l0 -50 146 0 146 0 -4 -109 c-4 -124 -19 -158 -77 -175
-29 -8 -31 -12 -31 -57 0 -49 0 -49 34 -49 78 0 157 48 187 114 16 35 19 67
19 209 l0 167 -210 0 -210 0 0 -50z"/>
<path d="M11460 11430 l0 -50 36 0 c31 0 35 -3 28 -17 -4 -10 -10 -71 -13
-136 -7 -128 -16 -147 -68 -147 -21 0 -23 -4 -23 -51 l0 -51 70 4 c60 3 73 7
100 33 41 39 50 79 50 217 0 64 3 123 6 132 8 21 72 21 102 0 21 -15 22 -20
22 -195 l0 -179 71 0 71 0 -4 188 c-3 177 -4 189 -27 226 -40 64 -79 76 -263
76 l-158 0 0 -50z"/>
<path d="M12100 11285 l130 -195 -110 0 -110 0 0 -50 0 -50 195 0 195 0 0 30
c0 21 -18 56 -54 108 l-55 78 70 132 c38 73 69 135 69 137 0 3 -33 5 -73 5
l-73 0 -33 -75 c-18 -41 -37 -73 -41 -70 -4 2 -27 36 -50 75 l-42 70 -74 0
-74 0 130 -195z"/>
<path d="M12480 11430 c0 -43 3 -50 20 -50 19 0 20 -7 20 -195 l0 -195 65 0
65 0 0 245 0 245 -85 0 -85 0 0 -50z"/>
<path d="M12760 11430 l0 -50 83 0 c126 0 127 -1 127 -161 l0 -129 -115 0
-115 0 0 -50 0 -50 210 0 210 0 0 50 c0 46 -2 50 -24 50 l-24 0 -4 138 c-3
122 -6 141 -26 174 -37 59 -88 78 -215 78 l-107 0 0 -50z"/>
<path d="M13230 11430 l0 -50 146 0 146 0 -3 -114 c-4 -104 -6 -117 -28 -140
-13 -14 -36 -28 -52 -31 -27 -6 -29 -10 -29 -56 l0 -49 38 0 c59 0 136 42 169
91 28 42 28 45 31 221 l4 178 -211 0 -211 0 0 -50z"/>
<path d="M33700 11281 c-6 -12 -10 -101 -10 -220 l0 -201 65 0 64 0 3 220 3
220 -57 0 c-46 0 -59 -4 -68 -19z"/>
<path d="M13252 11235 c-8 -17 -12 -94 -12 -220 l0 -195 65 0 65 0 0 220 0
220 -53 0 c-48 0 -55 -3 -65 -25z"/>
<path d="M11950 10500 l0 -120 130 0 c72 0 130 -2 130 -5 0 -3 -34 -88 -75
-190 -41 -101 -75 -186 -75 -189 0 -3 31 -6 68 -6 l68 0 82 205 c54 136 82
219 82 245 l0 40 -135 0 -135 0 0 70 0 70 -70 0 -70 0 0 -120z"/>
<path d="M31950 10470 l0 -50 36 0 c26 0 33 -3 27 -12 -4 -7 -10 -69 -13 -136
-5 -107 -8 -126 -25 -138 -10 -8 -29 -14 -42 -14 -21 0 -23 -4 -23 -50 l0 -50
56 0 c76 0 118 22 144 74 17 35 20 62 20 162 0 157 2 164 51 164 26 0 46 -7
59 -20 18 -18 20 -33 20 -195 l0 -175 71 0 71 0 -4 188 c-4 217 -11 241 -88
280 -40 20 -58 22 -202 22 l-158 0 0 -50z"/>
<path d="M32480 10470 c0 -43 3 -50 20 -50 19 0 20 -7 20 -195 l0 -195 70 0
70 0 0 245 0 245 -90 0 -90 0 0 -50z"/>
<path d="M32750 10471 l0 -49 91 -4 c119 -4 119 -4 119 -165 l0 -123 -115 0
-115 0 0 -50 0 -50 215 0 215 0 0 50 c0 49 -1 50 -30 50 l-30 0 0 128 c0 113
-3 133 -22 172 -36 70 -85 90 -220 90 l-108 0 0 -49z"/>
<path d="M33180 10471 l0 -49 96 -4 c81 -2 98 -6 110 -22 11 -15 14 -59 14
-193 l0 -173 65 0 65 0 0 188 c0 217 -7 240 -80 279 -38 20 -58 23 -157 23
l-113 0 0 -49z"/>
<path d="M33620 10470 l0 -50 36 0 c26 0 33 -3 27 -12 -4 -7 -10 -69 -13 -136
-5 -107 -8 -126 -25 -138 -10 -8 -29 -14 -42 -14 -21 0 -23 -4 -23 -50 l0 -50
56 0 c76 0 118 22 144 74 17 35 20 62 20 162 0 157 2 164 51 164 26 0 46 -7
59 -20 18 -18 20 -33 20 -195 l0 -175 71 0 71 0 -4 188 c-4 217 -11 241 -88
280 -40 20 -58 22 -202 22 l-158 0 0 -50z"/>
<path d="M11470 10430 l0 -50 113 0 c165 0 157 11 157 -211 l0 -179 70 0 70 0
0 178 c0 164 -2 181 -22 222 -17 33 -35 51 -68 68 -39 20 -59 22 -182 22
l-138 0 0 -50z"/>
<path d="M12410 10430 c0 -43 3 -50 20 -50 19 0 20 -7 20 -195 l0 -195 65 0
65 0 0 245 0 245 -85 0 -85 0 0 -50z"/>
<path d="M12701 10443 c4 -21 22 -98 38 -171 17 -72 37 -145 46 -162 l15 -29
-47 14 c-26 8 -51 11 -54 7 -8 -8 -30 -84 -26 -89 2 -1 29 -9 62 -18 69 -18
173 -20 230 -4 52 15 119 82 134 134 6 22 11 111 11 198 l0 157 -70 0 -70 0 0
-170 c0 -170 0 -171 -26 -197 -14 -14 -27 -23 -30 -21 -4 4 -45 188 -74 331
l-11 57 -69 0 -68 0 9 -37z"/>
<path d="M13220 10430 c0 -46 2 -50 24 -50 23 0 23 -1 10 -37 -7 -21 -13 -63
-14 -95 0 -54 1 -56 31 -67 18 -6 56 -11 85 -11 l54 0 0 45 c0 38 -3 45 -20
45 -16 0 -20 7 -20 34 0 19 4 46 10 60 9 25 13 26 81 26 l71 0 -4 -120 c-4
-109 -6 -122 -28 -145 -31 -33 -77 -40 -163 -26 -38 6 -74 8 -78 4 -4 -4 -11
-27 -15 -49 l-6 -42 70 -12 c145 -26 260 1 310 74 36 52 42 91 42 258 l0 158
-220 0 -220 0 0 -50z"/>
<path d="M11479 10238 c-7 -13 -15 -74 -17 -135 l-5 -113 67 0 66 0 0 98 c0
53 3 114 6 135 l7 37 -56 0 c-48 0 -58 -3 -68 -22z"/>
<path d="M13900 9500 l0 -120 130 0 c72 0 130 -2 130 -5 0 -3 -34 -88 -75
-190 -41 -101 -75 -186 -75 -189 0 -3 31 -6 68 -6 l68 0 82 205 c54 136 82
219 82 245 l0 40 -135 0 -135 0 0 70 0 70 -70 0 -70 0 0 -120z"/>
<path d="M34251 9515 c-35 -8 -65 -16 -68 -18 -7 -7 19 -97 28 -97 4 0 19 4
33 9 l24 10 -18 -42 c-14 -33 -50 -275 -50 -338 0 -6 26 -9 67 -7 l68 3 16
167 c17 174 28 210 69 223 27 8 68 -18 80 -51 6 -14 10 -75 10 -135 l0 -109
-45 0 -45 0 0 -50 0 -50 111 0 110 0 -3 188 c-3 185 -4 189 -30 229 -39 59
-84 77 -198 80 -55 1 -122 -4 -159 -12z"/>
<path d="M31380 9470 l0 -50 36 0 c26 0 33 -3 27 -12 -4 -7 -10 -69 -13 -136
-5 -107 -8 -126 -25 -138 -10 -8 -29 -14 -42 -14 -21 0 -23 -4 -23 -50 l0 -50
56 0 c76 0 118 22 144 74 17 35 20 62 20 162 0 157 2 164 51 164 26 0 46 -7
59 -20 18 -18 20 -33 20 -195 l0 -175 71 0 71 0 -4 188 c-4 217 -11 241 -88
280 -40 20 -58 22 -202 22 l-158 0 0 -50z"/>
<path d="M31942 9298 l3 -222 70 -25 c61 -22 87 -25 200 -26 115 0 136 3 180
23 63 29 102 66 126 117 16 34 19 66 19 198 l0 157 -64 0 -65 0 -3 -149 c-3
-166 -10 -186 -78 -225 -40 -24 -143 -27 -212 -7 l-48 14 0 183 0 184 -65 0
-65 0 2 -222z"/>
<path d="M32170 9378 c0 -79 -3 -153 -6 -166 -6 -22 -5 -23 52 -20 79 4 84 14
84 191 l0 137 -65 0 -65 0 0 -142z"/>
<path d="M32620 9470 l0 -50 105 0 105 0 0 -195 0 -195 65 0 65 0 0 195 0 195
45 0 45 0 0 50 0 50 -215 0 -215 0 0 -50z"/>
<path d="M33130 9275 l0 -245 70 0 70 0 0 195 0 195 50 0 c37 0 55 -5 70 -20
18 -18 20 -33 20 -195 l0 -175 71 0 71 0 -4 188 c-4 217 -11 241 -88 280 -40
20 -59 22 -187 22 l-143 0 0 -245z"/>
<path d="M33640 9470 l0 -50 36 0 c26 0 33 -3 27 -12 -4 -7 -10 -69 -13 -136
-5 -107 -8 -126 -25 -138 -10 -8 -29 -14 -42 -14 -21 0 -23 -4 -23 -50 l0 -50
56 0 c76 0 118 22 144 74 17 35 20 62 20 162 0 157 2 164 51 164 26 0 46 -7
59 -20 18 -18 20 -33 20 -195 l0 -175 71 0 71 0 -4 188 c-4 217 -11 241 -88
280 -40 20 -58 22 -202 22 l-158 0 0 -50z"/>
<path d="M12508 9476 c-32 -7 -60 -14 -62 -17 -3 -3 0 -24 6 -48 10 -40 13
-43 40 -37 l28 6 -22 -43 c-33 -63 -30 -167 5 -240 37 -75 89 -110 172 -115
147 -10 233 70 243 224 9 135 -33 224 -123 265 -48 22 -197 25 -287 5z m239
-110 c26 -23 28 -29 31 -118 3 -103 -6 -133 -50 -157 -65 -37 -118 26 -118
142 0 135 63 196 137 133z"/>
<path d="M10590 9430 l0 -50 113 0 c165 0 157 11 157 -211 l0 -179 70 0 70 0
0 178 c0 164 -2 181 -22 222 -17 33 -35 51 -68 68 -39 20 -59 22 -182 22
l-138 0 0 -50z"/>
<path d="M11110 9430 l0 -50 146 0 146 0 -3 -114 c-4 -104 -6 -117 -28 -140
-13 -14 -36 -28 -52 -31 -27 -6 -29 -10 -29 -56 l0 -49 38 0 c59 0 136 42 169
91 28 42 28 45 31 221 l4 178 -211 0 -211 0 0 -50z"/>
<path d="M11620 9430 l0 -50 35 0 35 0 0 -90 0 -90 70 0 70 0 0 140 0 140
-105 0 -105 0 0 -50z"/>
<path d="M11942 9303 c3 -167 5 -181 27 -220 38 -66 90 -97 172 -101 59 -4 77
0 122 22 32 15 62 40 77 62 23 35 25 47 28 178 3 134 2 143 -20 176 -33 49
-62 61 -135 57 -77 -4 -87 -12 -78 -66 7 -40 8 -41 39 -35 55 10 66 -11 66
-126 0 -55 -5 -110 -11 -124 -23 -50 -103 -57 -134 -13 -12 17 -15 58 -15 194
l0 173 -71 0 -71 0 4 -177z"/>
<path d="M12980 9430 l0 -50 35 0 35 0 0 -90 0 -90 70 0 70 0 0 140 0 140
-105 0 -105 0 0 -50z"/>
<path d="M13290 9430 l0 -50 55 0 55 0 0 -108 c0 -83 -4 -113 -16 -131 -20
-28 -72 -51 -114 -51 -30 0 -30 0 -30 -55 l0 -55 36 0 c54 0 101 27 129 74 14
22 25 34 25 26 0 -8 5 -32 11 -52 l10 -38 59 0 c41 0 60 4 60 13 0 6 -9 58
-20 115 -14 70 -20 144 -20 232 l0 130 -120 0 -120 0 0 -50z"/>
<path d="M13640 9430 c0 -43 3 -50 20 -50 19 0 20 -7 20 -195 l0 -195 65 0 65
0 0 245 0 245 -85 0 -85 0 0 -50z"/>
<path d="M14360 9430 c0 -43 3 -50 20 -50 19 0 20 -7 20 -195 l0 -195 65 0 65
0 0 245 0 245 -85 0 -85 0 0 -50z"/>
<path d="M10599 9238 c-7 -13 -15 -74 -17 -135 l-5 -113 67 0 66 0 0 98 c0 53
3 114 6 135 l7 37 -56 0 c-48 0 -58 -3 -68 -22z"/>
<path d="M11132 9235 c-8 -17 -12 -94 -12 -220 l0 -195 65 0 65 0 0 220 0 220
-53 0 c-48 0 -55 -3 -65 -25z"/>
<path d="M31823 7528 c-148 -229 -389 -563 -569 -791 -27 -34 -35 -52 -28 -62
49 -68 121 -154 129 -154 31 -1 580 759 743 1030 l22 36 -99 36 c-55 20 -102
37 -105 37 -4 0 -45 -60 -93 -132z"/>
<path d="M13563 7612 c-51 -19 -93 -38 -93 -42 0 -20 271 -422 438 -650 122
-166 313 -410 321 -410 10 0 136 162 134 171 -2 4 -49 68 -106 141 -142 182
-349 470 -476 665 -58 89 -110 162 -116 161 -5 0 -52 -16 -102 -36z"/>
<path d="M28000 6060 l0 -50 36 0 c31 0 35 -3 28 -17 -4 -10 -10 -71 -13 -136
-7 -128 -16 -147 -68 -147 -21 0 -23 -4 -23 -51 l0 -51 70 4 c60 3 73 7 100
33 41 39 50 79 50 217 0 64 3 123 6 132 8 21 72 21 102 0 21 -15 22 -20 22
-195 l0 -179 71 0 71 0 -4 188 c-3 177 -4 189 -27 226 -40 64 -79 76 -263 76
l-158 0 0 -50z"/>
<path d="M28640 5915 l130 -195 -110 0 -110 0 0 -50 0 -50 195 0 195 0 0 30
c0 21 -18 56 -54 108 l-55 78 70 132 c38 73 69 135 69 137 0 3 -33 5 -73 5
l-73 0 -33 -75 c-18 -41 -37 -73 -41 -70 -4 2 -27 36 -50 75 l-42 70 -74 0
-74 0 130 -195z"/>
<path d="M29020 6060 c0 -43 3 -50 20 -50 19 0 20 -7 20 -195 l0 -195 65 0 65
0 0 245 0 245 -85 0 -85 0 0 -50z"/>
<path d="M29300 6060 l0 -50 83 0 c126 0 127 -1 127 -161 l0 -129 -115 0 -115
0 0 -50 0 -50 210 0 210 0 0 50 c0 46 -2 50 -24 50 l-24 0 -4 138 c-3 122 -6
141 -26 174 -37 59 -88 78 -215 78 l-107 0 0 -50z"/>
<path d="M29770 6060 l0 -50 146 0 146 0 -3 -114 c-4 -104 -6 -117 -28 -140
-13 -14 -36 -28 -52 -31 -27 -6 -29 -10 -29 -56 l0 -49 38 0 c59 0 136 42 169
91 28 42 28 45 31 221 l4 178 -211 0 -211 0 0 -50z"/>
<path d="M29792 5865 c-8 -17 -12 -94 -12 -220 l0 -195 65 0 65 0 0 220 0 220
-53 0 c-48 0 -55 -3 -65 -25z"/>
<path d="M15370 5530 l0 -50 36 0 c31 0 35 -3 28 -17 -4 -10 -10 -71 -13 -136
-7 -128 -16 -147 -68 -147 -21 0 -23 -4 -23 -51 l0 -51 70 4 c60 3 73 7 100
33 40 39 50 79 50 210 0 146 3 155 49 155 20 0 47 -7 59 -16 21 -15 22 -20 22
-195 l0 -179 71 0 71 0 -4 188 c-4 217 -11 241 -88 280 -40 20 -58 22 -202 22
l-158 0 0 -50z"/>
<path d="M15895 5553 c10 -16 69 -103 131 -195 l113 -168 -110 0 -109 0 0 -50
0 -50 195 0 195 0 0 31 c0 22 -17 55 -54 108 l-54 77 69 130 c38 71 69 132 69
137 0 4 -33 7 -74 7 l-73 0 -35 -77 -34 -77 -48 77 -48 77 -75 0 -75 0 17 -27z"/>
<path d="M16390 5530 c0 -43 3 -50 20 -50 19 0 20 -7 20 -195 l0 -195 70 0 70
0 0 245 0 245 -90 0 -90 0 0 -50z"/>
<path d="M16670 5530 l0 -50 83 0 c126 0 127 -1 127 -161 l0 -129 -115 0 -115
0 0 -50 0 -50 216 0 215 0 -3 48 c-3 43 -5 47 -30 50 l-26 3 -4 137 c-3 122
-6 141 -26 174 -37 59 -88 78 -215 78 l-107 0 0 -50z"/>
<path d="M17140 5530 l0 -50 146 0 146 0 -4 -109 c-4 -124 -19 -158 -77 -175
-29 -8 -31 -12 -31 -57 0 -49 0 -49 34 -49 78 0 157 48 187 114 16 35 19 67
19 209 l0 167 -210 0 -210 0 0 -50z"/>
<path d="M17160 5334 c-6 -14 -10 -113 -10 -220 l0 -194 65 0 65 0 0 220 0
220 -55 0 c-50 0 -56 -2 -65 -26z"/>
<path d="M29368 5106 c-32 -7 -60 -14 -62 -17 -3 -3 0 -24 6 -48 10 -40 13
-43 40 -37 l28 6 -22 -43 c-33 -63 -30 -167 5 -240 37 -75 89 -110 172 -115
147 -10 233 70 243 224 9 135 -33 224 -123 265 -48 22 -197 25 -287 5z m239
-110 c26 -23 28 -29 31 -118 3 -103 -6 -133 -50 -157 -65 -37 -118 26 -118
142 0 135 63 196 137 133z"/>
<path d="M27950 5060 l0 -50 113 0 c165 0 157 11 157 -211 l0 -179 70 0 70 0
0 178 c0 164 -2 181 -22 222 -17 33 -35 51 -68 68 -39 20 -59 22 -182 22
l-138 0 0 -50z"/>
<path d="M28420 5061 l0 -51 90 0 c133 0 130 4 130 -215 l0 -175 65 0 65 0 0
189 c0 179 -1 190 -22 221 -46 67 -66 75 -204 78 l-124 4 0 -51z"/>
<path d="M28860 5060 l0 -50 83 0 c126 0 127 -1 127 -161 l0 -129 -115 0 -115
0 0 -50 0 -50 210 0 210 0 0 50 c0 46 -2 50 -24 50 l-24 0 -4 138 c-3 122 -6
141 -26 174 -37 59 -88 78 -215 78 l-107 0 0 -50z"/>
<path d="M29870 5060 l0 -50 113 0 c165 0 157 11 157 -211 l0 -179 70 0 70 0
0 178 c0 164 -2 181 -22 222 -17 33 -35 51 -68 68 -39 20 -59 22 -182 22
l-138 0 0 -50z"/>
<path d="M27959 4868 c-7 -13 -15 -74 -17 -135 l-5 -113 67 0 66 0 0 98 c0 53
3 114 6 135 l7 37 -56 0 c-48 0 -58 -3 -68 -22z"/>
<path d="M29879 4868 c-7 -13 -15 -74 -17 -135 l-5 -113 67 0 66 0 0 98 c0 53
3 114 6 135 l7 37 -56 0 c-48 0 -58 -3 -68 -22z"/>
<path d="M16461 4575 c-35 -8 -65 -16 -68 -18 -6 -7 20 -97 28 -97 4 0 19 4
34 10 l25 10 -15 -31 c-14 -27 -27 -104 -50 -301 l-6 -58 65 0 c77 0 70 -15
86 175 7 72 16 145 22 163 12 41 49 66 84 58 40 -10 54 -58 54 -186 l0 -110
-45 0 -45 0 0 -50 0 -50 110 0 110 0 -1 173 c-1 181 -7 216 -47 262 -55 63
-189 82 -341 50z"/>
<path d="M15260 4530 l0 -50 36 0 c31 0 35 -3 28 -17 -4 -10 -10 -71 -13 -136
-7 -128 -16 -147 -68 -147 -21 0 -23 -4 -23 -51 l0 -51 70 4 c60 3 73 7 100
33 40 39 50 79 50 210 0 146 3 155 49 155 20 0 47 -7 59 -16 21 -15 22 -20 22
-195 l0 -179 71 0 71 0 -4 188 c-4 217 -11 241 -88 280 -40 20 -58 22 -202 22
l-158 0 0 -50z"/>
<path d="M15780 4530 c0 -43 3 -50 20 -50 19 0 20 -7 20 -195 l0 -195 70 0 70
0 0 245 0 245 -90 0 -90 0 0 -50z"/>
<path d="M16070 4530 l0 -50 40 0 40 0 0 -140 c0 -132 -1 -140 -21 -151 -12
-6 -37 -9 -55 -7 l-34 4 0 -47 c0 -55 6 -59 86 -59 80 0 121 20 144 72 17 38
20 66 20 236 l0 192 -110 0 -110 0 0 -50z"/>
<path d="M16940 4530 c0 -43 3 -50 20 -50 19 0 20 -7 20 -195 l0 -195 70 0 70
0 0 245 0 245 -90 0 -90 0 0 -50z"/>
<path d="M17272 4503 l53 -78 -32 -28 c-42 -37 -53 -79 -53 -204 l0 -103 65 0
65 0 0 119 c0 66 4 122 8 125 4 2 46 -51 92 -119 l85 -124 77 -1 77 0 -71 104
-71 104 72 136 c39 75 71 139 71 141 0 3 -33 5 -73 5 l-73 0 -40 -82 -41 -81
-54 79 -54 79 -79 3 -78 3 54 -78z"/>
<path d="M27550 4060 l0 -50 36 0 c31 0 35 -3 28 -17 -4 -10 -10 -71 -13 -136
-7 -128 -16 -147 -68 -147 -21 0 -23 -4 -23 -51 l0 -51 70 4 c60 3 73 7 100
33 41 39 50 79 50 217 0 64 3 123 6 132 8 21 72 21 102 0 21 -15 22 -20 22
-195 l0 -179 71 0 71 0 -4 188 c-3 177 -4 189 -27 226 -40 64 -79 76 -263 76
l-158 0 0 -50z"/>
<path d="M28070 4060 l0 -50 35 0 35 0 0 -90 0 -90 70 0 70 0 0 140 0 140
-105 0 -105 0 0 -50z"/>
<path d="M28370 4060 l0 -50 83 0 c126 0 127 -1 127 -161 l0 -129 -115 0 -115
0 0 -50 0 -50 210 0 210 0 0 50 c0 46 -2 50 -24 50 l-24 0 -4 138 c-3 122 -6
141 -26 174 -37 59 -88 78 -215 78 l-107 0 0 -50z"/>
<path d="M29010 4060 l0 -50 35 0 35 0 0 -90 0 -90 70 0 70 0 0 140 0 140
-105 0 -105 0 0 -50z"/>
<path d="M29330 4060 l0 -50 55 0 55 0 0 -108 c0 -83 -4 -113 -16 -131 -20
-28 -72 -51 -114 -51 -30 0 -30 0 -30 -55 l0 -55 36 0 c54 0 101 27 129 74 14
22 25 34 25 26 0 -8 5 -32 11 -52 l10 -38 59 0 c41 0 60 4 60 13 0 6 -9 58
-20 115 -14 70 -20 144 -20 232 l0 130 -120 0 -120 0 0 -50z"/>
<path d="M29680 4060 c0 -43 3 -50 20 -50 19 0 20 -7 20 -195 l0 -195 65 0 65
0 0 245 0 245 -85 0 -85 0 0 -50z"/>
<path d="M29980 3865 l0 -245 70 0 70 0 0 195 0 195 48 0 c27 0 57 -7 70 -16
21 -15 22 -20 22 -195 l0 -179 71 0 71 0 -4 183 c-4 213 -13 245 -88 284 -39
21 -56 23 -187 23 l-143 0 0 -245z"/>
<path d="M30480 4060 c0 -43 3 -50 20 -50 19 0 20 -7 20 -195 l0 -195 65 0 65
0 0 245 0 245 -85 0 -85 0 0 -50z"/>
<path d="M21690 3481 l0 -51 36 0 c31 0 35 -3 28 -17 -4 -10 -9 -70 -12 -133
-4 -128 -14 -150 -64 -150 -28 0 -29 -1 -26 -47 l3 -48 52 -3 c63 -4 106 16
133 61 16 26 20 52 21 132 0 55 4 123 7 150 7 48 8 50 41 53 91 9 101 -14 101
-229 l0 -159 60 0 60 0 0 189 c0 179 -1 190 -22 221 -49 71 -61 75 -249 78
l-169 3 0 -50z"/>
<path d="M22330 3338 l131 -193 -111 -3 -110 -3 0 -49 0 -50 195 0 195 0 0 28
c0 16 -21 58 -55 107 l-55 80 71 138 70 137 -75 0 c-42 0 -76 -4 -76 -9 0 -4
-15 -41 -33 -80 l-34 -72 -49 80 -49 81 -73 0 -73 0 131 -192z"/>
<path d="M22710 3480 c0 -43 3 -50 20 -50 19 0 20 -7 20 -195 l0 -195 65 0 65
0 0 245 0 245 -85 0 -85 0 0 -50z"/>
<path d="M22990 3480 l0 -50 79 0 c120 0 125 -6 129 -164 l4 -126 -121 0 -121
0 0 -50 0 -50 210 0 210 0 0 50 c0 47 -2 50 -25 50 l-25 0 0 103 c-1 175 -19
223 -100 265 -37 18 -60 22 -142 22 l-98 0 0 -50z"/>
<path d="M23470 3480 l0 -50 140 0 140 0 0 -99 c0 -54 -5 -112 -11 -130 -11
-31 -52 -61 -84 -61 -11 0 -15 -12 -15 -50 0 -48 1 -50 28 -50 86 0 179 67
201 145 6 22 11 109 11 193 l0 152 -205 0 -205 0 0 -50z"/>
<path d="M26600 3329 c-179 -71 -592 -209 -819 -274 -107 -30 -196 -57 -199
-59 -7 -8 10 -216 18 -216 22 0 485 138 668 199 187 62 581 206 590 216 6 5
-118 185 -126 184 -4 -1 -63 -23 -132 -50z"/>
<path d="M18786 3284 c-32 -48 -54 -90 -49 -94 14 -14 429 -165 643 -234 113
-37 286 -89 385 -117 99 -28 192 -54 208 -59 27 -9 27 -9 27 38 0 26 3 76 6
112 l6 65 -158 44 c-215 60 -579 178 -805 262 -103 38 -191 69 -196 69 -6 0
-36 -39 -67 -86z"/>
<path d="M23481 3279 c-6 -19 -11 -109 -11 -220 l0 -189 60 0 60 0 0 174 c0
95 3 194 6 220 l7 46 -56 0 c-53 0 -55 -1 -66 -31z"/>
<path d="M23383 2525 c-35 -7 -67 -16 -72 -19 -11 -7 13 -92 26 -89 4 1 21 5
36 8 l28 7 -21 -35 c-15 -25 -25 -71 -35 -163 -8 -71 -17 -144 -19 -161 l-5
-33 63 0 64 0 5 43 c4 23 11 96 18 162 13 134 29 182 66 191 33 9 71 -10 83
-42 6 -14 10 -77 10 -140 l0 -114 -40 0 -40 0 0 -50 0 -50 106 0 106 0 -4 183
c-3 207 -10 228 -86 281 -39 27 -51 30 -135 33 -53 1 -118 -3 -154 -12z"/>
<path d="M21780 2480 l0 -50 88 0 c136 0 132 7 132 -211 l0 -179 66 0 65 0 -3
194 c-3 222 -7 232 -88 274 -38 19 -60 22 -152 22 l-108 0 0 -50z"/>
<path d="M22260 2480 l0 -50 140 0 140 0 0 -99 c0 -54 -5 -112 -11 -130 -11
-31 -52 -61 -84 -61 -11 0 -15 -12 -15 -50 0 -48 1 -50 28 -50 86 0 179 67
201 145 6 22 11 109 11 193 l0 152 -205 0 -205 0 0 -50z"/>
<path d="M22800 2286 l0 -246 60 0 60 0 0 195 0 195 58 0 c31 0 64 -4 72 -10
17 -11 29 -111 29 -267 l1 -113 60 0 60 0 0 189 c0 179 -1 190 -22 221 -47 69
-64 75 -229 78 l-149 4 0 -246z"/>
<path d="M22271 2279 c-6 -19 -11 -109 -11 -220 l0 -189 60 0 60 0 0 174 c0
95 3 194 6 220 l7 46 -56 0 c-53 0 -55 -1 -66 -31z"/>
</g>
</svg>
