<?xml version="1.0" encoding="UTF-8"?>
<svg width="21px" height="17px" viewBox="0 0 21 17" version="1.1" xmlns="http://www.w3.org/2000/svg" xmlns:xlink="http://www.w3.org/1999/xlink">
    <title>Fill 1@3x</title>
    <g id="Symbols" stroke="none" stroke-width="1" fill="none" fill-rule="evenodd">
        <g id="Top_menu" transform="translate(-80.000000, -42.000000)" fill="#F9F9F9">
            <path d="M101,44.0121515 C100.227594,44.3533936 99.3967813,44.5841569 98.5252813,44.6880984 C99.4151562,44.1566237 100.098313,43.3159392 100.419875,42.3137858 C99.58775,42.8053836 98.6650625,43.1623149 97.6839688,43.3551625 C96.8977812,42.5210152 95.7782188,42 94.5392188,42 C92.1596562,42 90.2309375,43.9212844 90.2309375,46.2916747 C90.2309375,46.627687 90.269,46.9552009 90.3425,47.2696405 C86.7613437,47.0905211 83.5870625,45.3816958 81.462125,42.7851182 C81.0913437,43.4192271 80.8787188,44.1566237 80.8787188,44.9430494 C80.8787188,46.4315709 81.6393125,47.7455489 82.7949687,48.5149779 C82.0888437,48.4927514 81.4247187,48.2999039 80.8439375,47.9782734 C80.8432813,47.9965776 80.8432813,48.014228 80.8432813,48.0325322 C80.8432813,50.1120169 82.328375,51.8463372 84.29975,52.2405307 C83.9381563,52.3385887 83.5575312,52.3908864 83.1644375,52.3908864 C82.8868437,52.3908864 82.617125,52.3640838 82.3539688,52.3144011 C82.9019375,54.019304 84.4933437,55.2600654 86.37875,55.2947126 C84.9041562,56.4459142 83.0463125,57.131667 81.0276875,57.131667 C80.679875,57.131667 80.3373125,57.1114017 80,57.0721784 C81.9064063,58.2894059 84.171125,59 86.6045,59 C94.529375,59 98.8625938,52.4601807 98.8625938,46.7891559 C98.8625938,46.6028456 98.8586562,46.4178427 98.850125,46.2334936 C99.6920937,45.6288022 100.4225,44.8731013 101,44.0121515" id="Fill-1"></path>
        </g>
    </g>
</svg>