<?xml version="1.0" encoding="UTF-8"?>
<svg width="79px" height="60px" viewBox="0 0 79 60" version="1.1" xmlns="http://www.w3.org/2000/svg" xmlns:xlink="http://www.w3.org/1999/xlink">
    <title>uk@3x</title>
    <g id="Page-1" stroke="none" stroke-width="1" fill="none" fill-rule="evenodd">
        <g id="XRIL-join-long-form" transform="translate(-294.000000, -1567.000000)" fill="#FFFFFF" fill-rule="nonzero">
            <g id="uk" transform="translate(294.000000, 1567.000000)">
                <polygon id="Path" points="0 23 18 23 0 10"></polygon>
                <polygon id="Path" points="46 45 46 60 68 60"></polygon>
                <polygon id="Path" points="55.353541 27.3799329 47.524209 27.3799329 42.0460527 27.3799329 42.0460527 24.725168 42.0460527 18.9889327 42.0460527 3.09164838 42.0460527 0 36.9539473 0 36.9539473 3.09164838 36.9539473 18.9889327 36.9539473 24.725168 36.9539473 27.3799329 31.475791 27.3799329 23.646459 27.3799329 19.2871094 27.3799329 0 27.3799329 0 32.4692475 19.2871094 32.4692475 23.646459 32.4692475 31.4759453 32.4692475 36.9539473 32.4692475 36.9539473 35.1243208 36.9539473 40.8605561 36.9539473 48.1216427 36.9539473 60 42.0460527 60 42.0460527 48.1216427 42.0460527 40.8605561 42.0460527 35.1243208 42.0460527 32.4692475 47.5240547 32.4692475 55.353541 32.4692475 64.3417969 32.4692475 79 32.4692475 79 27.3799329 64.3417969 27.3799329"></polygon>
                <polygon id="Path" points="0 49 18 36 0 36"></polygon>
                <polygon id="Path" points="33 60 33 45 11 60"></polygon>
                <polygon id="Path" points="79 49 79 36 61 36"></polygon>
                <polygon id="Path" points="61 23 79 23 79 10"></polygon>
                <polygon id="Path" points="32 38.4259148 32 37 24.9083385 37 0 55.5113415 0 60 2.97059175 60"></polygon>
                <polygon id="Path" points="54.0916615 37 47 37 47 38.4259148 76.0294083 60 79 60 79 55.5113415"></polygon>
                <polygon id="Path" points="24.9081857 22 32 22 32 20.62719 3.17420131 0 0 0 0 4.17628281"></polygon>
                <polygon id="Path" points="47 20.62719 47 22 54.0918143 22 79 4.17628281 79 0 75.8257987 0"></polygon>
                <polygon id="Path" points="33 15 33 0 11 0"></polygon>
                <polygon id="Path" points="46 1.05376952e-15 46 15 68 0"></polygon>
            </g>
        </g>
    </g>
</svg>