<?xml version="1.0" encoding="UTF-8"?>
<svg width="71px" height="71px" viewBox="0 0 71 71" version="1.1" xmlns="http://www.w3.org/2000/svg" xmlns:xlink="http://www.w3.org/1999/xlink">
    <title>www@3x</title>
    <g id="Page-1" stroke="none" stroke-width="1" fill="none" fill-rule="evenodd">
        <g id="XRIL-join-long-form" transform="translate(-691.000000, -1565.000000)" fill="#FFFFFF" fill-rule="nonzero">
            <g id="www" transform="translate(691.000000, 1565.000000)">
                <path d="M60.5966496,10.4033453 C46.7269013,-3.46667328 24.2753676,-3.46889023 10.4034024,10.4033453 C-3.46676158,24.2733639 -3.46883996,46.7246096 10.4034024,60.5967066 C24.2731506,74.4667252 46.7246844,74.4688036 60.5966496,60.5967066 C74.4668135,46.726688 74.4687534,24.2754423 60.5966496,10.4033453 Z M59.1132378,55.5373686 C57.4549646,54.0545117 55.6811332,52.7422208 53.8114191,51.6113034 C55.0472261,47.3424436 55.7793715,42.6448827 55.9524316,37.7617915 L66.3871656,37.7617915 C65.9153724,44.3437528 63.386395,50.518074 59.1132378,55.5373686 Z M4.61274782,37.7617915 L15.0474818,37.7617915 C15.2205419,42.6448827 15.9526873,47.3424436 17.1884943,51.6113034 C15.3187802,52.7422208 13.5449488,54.0545117 11.8866756,55.5373686 C7.61351844,50.518074 5.08467952,44.3437528 4.61274782,37.7617915 Z M11.8868142,15.4626834 C13.5450874,16.9455403 15.3189187,18.2578312 17.1886329,19.3887486 C15.9528258,23.6576084 15.2206805,28.3551693 15.0476204,33.2382605 L4.61274782,33.2382605 C5.08467952,26.6564377 7.61351844,20.4821165 11.8868142,15.4626834 Z M33.2383287,19.8562462 C29.549613,19.5924301 25.992944,18.6838997 22.6956573,17.1851085 C24.6133128,12.2470095 28.1485052,6.32431117 33.2383287,4.8565572 L33.2383287,19.8562462 Z M33.2383287,24.3882292 L33.2383287,33.2383991 L19.5729548,33.2383991 C19.7295264,29.1076824 20.3147993,25.1411581 21.2881757,21.5118859 C25.0352247,23.1499287 29.0650724,24.1281543 33.2383287,24.3882292 Z M33.2383287,37.7617915 L33.2383287,46.6119613 C29.0650724,46.8720363 25.0352247,47.8502618 21.2881757,49.4883046 C20.3147993,45.8590325 19.7295264,41.8925081 19.5729548,37.7617915 L33.2383287,37.7617915 Z M33.2383287,51.1439444 L33.2383287,66.1434948 C28.1487823,64.6757408 24.6135899,58.7537353 22.6956573,53.815082 C25.992944,52.3162908 29.549613,51.4077604 33.2383287,51.1439444 Z M37.7617233,51.1439444 C41.450439,51.4077604 45.007108,52.3162908 48.3043947,53.815082 C46.3866006,58.7533196 42.8515468,64.6757408 37.7617233,66.1434948 L37.7617233,51.1439444 Z M37.7617233,46.6119613 L37.7617233,37.7617915 L51.4270971,37.7617915 C51.2705256,41.8925081 50.6852527,45.8590325 49.7118762,49.4883046 C45.9648273,47.8502618 41.9349795,46.8720363 37.7617233,46.6119613 Z M37.7617233,33.2383991 L37.7617233,24.3882292 C41.9349795,24.1281543 45.9648273,23.1499287 49.7118762,21.5118859 C50.6852527,25.1411581 51.2705256,29.1076824 51.4270971,33.2383991 L37.7617233,33.2383991 Z M37.7617233,19.8562462 L37.7617233,4.85669576 C42.8515468,6.32444972 46.3867392,12.247148 48.3043947,17.1852471 C45.007108,18.6838997 41.450439,19.5924301 37.7617233,19.8562462 Z M47.9208636,7.11478944 C50.8160523,8.38260297 53.5171199,10.1017027 55.9384371,12.2346777 C54.785904,13.2508684 53.5697723,14.1722848 52.2998798,14.9962943 C51.1721487,12.2040562 49.7315516,9.49051959 47.9208636,7.11478944 Z M18.7000336,14.9962943 C17.4301411,14.1722848 16.2141479,13.2508684 15.0614763,12.2346777 C17.4827935,10.1017027 20.1838611,8.38260297 23.0790498,7.11478944 C21.2683618,9.4907967 19.8277647,12.2043333 18.7000336,14.9962943 Z M18.7001722,56.0038962 C19.8277647,58.7959957 21.2686389,61.5096709 23.0791884,63.8854011 C20.1839997,62.6175875 17.482932,60.8984878 15.0616148,58.7655128 C16.2141479,57.7493221 17.4302796,56.8279057 18.7001722,56.0038962 L18.7001722,56.0038962 Z M52.2998798,56.0038962 C53.5697723,56.8279057 54.785904,57.7493221 55.9384371,58.7653742 C53.5171199,60.8983493 50.8160523,62.617449 47.9208636,63.8852625 C49.731413,61.5098095 51.1721487,58.7961343 52.2998798,56.0038962 Z M55.9525702,33.2383991 C55.7795101,28.3553078 55.0473647,23.6576084 53.8115577,19.3888871 C55.6812718,18.2579698 57.4549646,16.9456788 59.1133763,15.462822 C63.3865335,20.4821165 65.9153724,26.6564377 66.3873041,33.2383991 L55.9525702,33.2383991 Z" id="Shape"></path>
            </g>
        </g>
    </g>
</svg>