<svg xmlns="http://www.w3.org/2000/svg" xmlns:xlink="http://www.w3.org/1999/xlink" width="79" height="55" viewBox="0 0 79 55">
    <defs>
        <path id="prefix__a" d="M0 0L78.189 0 78.189 54.94 0 54.94z"/>
    </defs>
    <g fill="none" fill-rule="evenodd">
        <mask id="prefix__b" fill="#fff">
            <use xlink:href="#prefix__a"/>
        </mask>
        <path fill="#C80082" d="M30.994 37.646V15.668l21.122 11.025-21.122 10.953zm46.399-25.78s-.762-5.39-3.113-7.756C71.304.997 67.971.978 66.445.796 55.513 0 39.092 0 39.092 0h-.029S22.647 0 11.71.796C10.18.982 6.852.997 3.876 4.11 1.524 6.476.777 11.866.777 11.866S0 18.19 0 24.528v5.929c0 6.323.777 12.662.777 12.662s.763 5.391 3.099 7.761c2.976 3.113 6.885 3.011 8.63 3.343 6.261.596 26.591.777 26.591.777s16.436-.029 27.368-.812c1.53-.18 4.858-.2 7.835-3.313 2.35-2.365 3.112-7.761 3.112-7.761s.777-6.324.777-12.662v-5.929c-.014-6.323-.792-12.662-.792-12.662l-.004.005z" mask="url(#prefix__b)"/>
    </g>
</svg>
